<mxfile host="app.diagrams.net" modified="2023-08-24T15:45:52.338Z" agent="Mozilla/5.0 (Macintosh; Intel Mac OS X 10_15_7) AppleWebKit/537.36 (KHTML, like Gecko) Chrome/116.0.0.0 Safari/537.36" etag="MN0C12iece-q5DRsoxdB" version="21.6.8" type="github">
  <diagram name="Page-1" id="38b20595-45e3-9b7f-d5ca-b57f44c5b66d">
    <mxGraphModel dx="5160" dy="2530" grid="1" gridSize="10" guides="1" tooltips="1" connect="1" arrows="1" fold="1" page="1" pageScale="1" pageWidth="620" pageHeight="90" background="none" math="0" shadow="0">
      <root>
        <mxCell id="0" />
        <mxCell id="1" parent="0" />
        <mxCell id="48ef80bc37b76060-389" value="" style="verticalLabelPosition=bottom;html=1;verticalAlign=top;align=center;strokeWidth=1;shape=mxgraph.floorplan.desk_corner_2;rounded=0;shadow=0;comic=0;fontFamily=Verdana;fontSize=12;flipH=1;flipV=1;" parent="1" vertex="1">
          <mxGeometry x="1906" y="600" width="192" height="97" as="geometry" />
        </mxCell>
        <mxCell id="48ef80bc37b76060-48" value="" style="verticalLabelPosition=bottom;html=1;verticalAlign=top;align=center;strokeWidth=1;shape=mxgraph.floorplan.office_chair;shadow=0;rounded=0;comic=0;fontFamily=Verdana;fontSize=12;" parent="1" vertex="1">
          <mxGeometry x="107" y="1132" width="40" height="43" as="geometry" />
        </mxCell>
        <mxCell id="48ef80bc37b76060-49" value="" style="shape=rect;shadow=0;rounded=0;comic=0;fontFamily=Verdana;fontSize=12;align=center;html=1;" parent="1" vertex="1">
          <mxGeometry x="17" y="1152" width="300" height="50" as="geometry" />
        </mxCell>
        <mxCell id="48ef80bc37b76060-10" value="" style="verticalLabelPosition=bottom;html=1;verticalAlign=top;align=center;strokeWidth=1;shape=mxgraph.floorplan.office_chair;shadow=0;rounded=0;comic=0;fontFamily=Verdana;fontSize=12;" parent="1" vertex="1">
          <mxGeometry x="1256" y="1043" width="40" height="43" as="geometry" />
        </mxCell>
        <mxCell id="48ef80bc37b76060-11" value="" style="verticalLabelPosition=bottom;html=1;verticalAlign=top;align=center;strokeWidth=1;shape=mxgraph.floorplan.office_chair;shadow=0;direction=west;rounded=0;comic=0;fontFamily=Verdana;fontSize=12;" parent="1" vertex="1">
          <mxGeometry x="1256" y="1140" width="40" height="43" as="geometry" />
        </mxCell>
        <mxCell id="48ef80bc37b76060-12" value="" style="verticalLabelPosition=bottom;html=1;verticalAlign=top;align=center;strokeWidth=1;shape=mxgraph.floorplan.office_chair;shadow=0;direction=north;rounded=0;comic=0;fontFamily=Verdana;fontSize=12;" parent="1" vertex="1">
          <mxGeometry x="1206" y="1093" width="43" height="40" as="geometry" />
        </mxCell>
        <mxCell id="48ef80bc37b76060-13" value="" style="verticalLabelPosition=bottom;html=1;verticalAlign=top;align=center;strokeWidth=1;shape=mxgraph.floorplan.office_chair;shadow=0;direction=south;rounded=0;comic=0;fontFamily=Verdana;fontSize=12;" parent="1" vertex="1">
          <mxGeometry x="1483" y="1093" width="43" height="40" as="geometry" />
        </mxCell>
        <mxCell id="48ef80bc37b76060-14" value="" style="verticalLabelPosition=bottom;html=1;verticalAlign=top;align=center;strokeWidth=1;shape=mxgraph.floorplan.office_chair;shadow=0;rounded=0;comic=0;fontFamily=Verdana;fontSize=12;" parent="1" vertex="1">
          <mxGeometry x="1316" y="1043" width="40" height="43" as="geometry" />
        </mxCell>
        <mxCell id="48ef80bc37b76060-15" value="" style="verticalLabelPosition=bottom;html=1;verticalAlign=top;align=center;strokeWidth=1;shape=mxgraph.floorplan.office_chair;shadow=0;direction=west;rounded=0;comic=0;fontFamily=Verdana;fontSize=12;" parent="1" vertex="1">
          <mxGeometry x="1316" y="1140" width="40" height="43" as="geometry" />
        </mxCell>
        <mxCell id="48ef80bc37b76060-16" value="" style="verticalLabelPosition=bottom;html=1;verticalAlign=top;align=center;strokeWidth=1;shape=mxgraph.floorplan.office_chair;shadow=0;rounded=0;comic=0;fontFamily=Verdana;fontSize=12;" parent="1" vertex="1">
          <mxGeometry x="1376" y="1043" width="40" height="43" as="geometry" />
        </mxCell>
        <mxCell id="48ef80bc37b76060-17" value="" style="verticalLabelPosition=bottom;html=1;verticalAlign=top;align=center;strokeWidth=1;shape=mxgraph.floorplan.office_chair;shadow=0;direction=west;rounded=0;comic=0;fontFamily=Verdana;fontSize=12;" parent="1" vertex="1">
          <mxGeometry x="1376" y="1140" width="40" height="43" as="geometry" />
        </mxCell>
        <mxCell id="48ef80bc37b76060-18" value="" style="verticalLabelPosition=bottom;html=1;verticalAlign=top;align=center;strokeWidth=1;shape=mxgraph.floorplan.office_chair;shadow=0;rounded=0;comic=0;fontFamily=Verdana;fontSize=12;" parent="1" vertex="1">
          <mxGeometry x="1436" y="1043" width="40" height="43" as="geometry" />
        </mxCell>
        <mxCell id="48ef80bc37b76060-19" value="" style="verticalLabelPosition=bottom;html=1;verticalAlign=top;align=center;strokeWidth=1;shape=mxgraph.floorplan.office_chair;shadow=0;direction=west;rounded=0;comic=0;fontFamily=Verdana;fontSize=12;" parent="1" vertex="1">
          <mxGeometry x="1436" y="1140" width="40" height="43" as="geometry" />
        </mxCell>
        <mxCell id="48ef80bc37b76060-20" value="" style="shape=ellipse;fillColor=#ffffff;strokeColor=#000000;shadow=0;rounded=0;comic=0;fontFamily=Verdana;fontSize=12;align=center;html=1;" parent="1" vertex="1">
          <mxGeometry x="1226" y="1063" width="280" height="100" as="geometry" />
        </mxCell>
        <mxCell id="48ef80bc37b76060-46" value="" style="group" parent="1" vertex="1" connectable="0">
          <mxGeometry x="530" y="1132" width="80" height="70" as="geometry" />
        </mxCell>
        <mxCell id="48ef80bc37b76060-1" value="" style="verticalLabelPosition=bottom;html=1;verticalAlign=top;align=center;strokeWidth=1;shape=mxgraph.floorplan.office_chair;shadow=0;rounded=0;comic=0;fontFamily=Verdana;fontSize=12;" parent="48ef80bc37b76060-46" vertex="1">
          <mxGeometry x="20" width="40" height="43" as="geometry" />
        </mxCell>
        <mxCell id="48ef80bc37b76060-2" value="" style="shape=rect;shadow=0;rounded=0;comic=0;fontFamily=Verdana;fontSize=12;align=center;html=1;" parent="48ef80bc37b76060-46" vertex="1">
          <mxGeometry y="20" width="80" height="50" as="geometry" />
        </mxCell>
        <mxCell id="48ef80bc37b76060-3" value="" style="verticalLabelPosition=bottom;html=1;verticalAlign=top;align=center;strokeWidth=1;shape=mxgraph.floorplan.workstation;shadow=0;flipV=1;rounded=0;comic=0;fontFamily=Verdana;fontSize=12;" parent="48ef80bc37b76060-46" vertex="1">
          <mxGeometry x="15" y="30" width="50" height="40" as="geometry" />
        </mxCell>
        <mxCell id="48ef80bc37b76060-55" value="" style="group;rotation=90;" parent="1" vertex="1" connectable="0">
          <mxGeometry x="12" y="707" width="80" height="70" as="geometry" />
        </mxCell>
        <mxCell id="48ef80bc37b76060-56" value="" style="verticalLabelPosition=bottom;html=1;verticalAlign=top;align=center;strokeWidth=1;shape=mxgraph.floorplan.office_chair;shadow=0;rounded=0;comic=0;fontFamily=Verdana;fontSize=12;rotation=90;" parent="48ef80bc37b76060-55" vertex="1">
          <mxGeometry x="34" y="14" width="40" height="43" as="geometry" />
        </mxCell>
        <mxCell id="48ef80bc37b76060-57" value="" style="shape=rect;shadow=0;rounded=0;comic=0;fontFamily=Verdana;fontSize=12;align=center;html=1;rotation=90;" parent="48ef80bc37b76060-55" vertex="1">
          <mxGeometry x="-10" y="10" width="80" height="50" as="geometry" />
        </mxCell>
        <mxCell id="48ef80bc37b76060-58" value="" style="verticalLabelPosition=bottom;html=1;verticalAlign=top;align=center;strokeWidth=1;shape=mxgraph.floorplan.workstation;shadow=0;flipV=1;rounded=0;comic=0;fontFamily=Verdana;fontSize=12;rotation=90;" parent="48ef80bc37b76060-55" vertex="1">
          <mxGeometry y="15" width="50" height="40" as="geometry" />
        </mxCell>
        <mxCell id="48ef80bc37b76060-72" value="" style="group;rotation=180;" parent="1" vertex="1" connectable="0">
          <mxGeometry x="1944" y="13" width="80" height="70" as="geometry" />
        </mxCell>
        <mxCell id="48ef80bc37b76060-73" value="" style="verticalLabelPosition=bottom;html=1;verticalAlign=top;align=center;strokeWidth=1;shape=mxgraph.floorplan.office_chair;shadow=0;rounded=0;comic=0;fontFamily=Verdana;fontSize=12;rotation=180;" parent="48ef80bc37b76060-72" vertex="1">
          <mxGeometry x="20" y="28" width="40" height="43" as="geometry" />
        </mxCell>
        <mxCell id="48ef80bc37b76060-74" value="" style="shape=rect;shadow=0;rounded=0;comic=0;fontFamily=Verdana;fontSize=12;align=center;html=1;rotation=180;" parent="48ef80bc37b76060-72" vertex="1">
          <mxGeometry width="80" height="50" as="geometry" />
        </mxCell>
        <mxCell id="48ef80bc37b76060-75" value="" style="verticalLabelPosition=bottom;html=1;verticalAlign=top;align=center;strokeWidth=1;shape=mxgraph.floorplan.workstation;shadow=0;flipV=1;rounded=0;comic=0;fontFamily=Verdana;fontSize=12;rotation=180;" parent="48ef80bc37b76060-72" vertex="1">
          <mxGeometry x="15" width="50" height="40" as="geometry" />
        </mxCell>
        <mxCell id="48ef80bc37b76060-114" value="" style="verticalLabelPosition=bottom;html=1;verticalAlign=top;align=center;strokeWidth=1;shape=mxgraph.floorplan.office_chair;shadow=0;rounded=0;comic=0;fontFamily=Verdana;fontSize=12;" parent="1" vertex="1">
          <mxGeometry x="648" y="459" width="40" height="43" as="geometry" />
        </mxCell>
        <mxCell id="48ef80bc37b76060-115" value="" style="verticalLabelPosition=bottom;html=1;verticalAlign=top;align=center;strokeWidth=1;shape=mxgraph.floorplan.office_chair;shadow=0;direction=west;rounded=0;comic=0;fontFamily=Verdana;fontSize=12;" parent="1" vertex="1">
          <mxGeometry x="648" y="556" width="40" height="43" as="geometry" />
        </mxCell>
        <mxCell id="48ef80bc37b76060-116" value="" style="verticalLabelPosition=bottom;html=1;verticalAlign=top;align=center;strokeWidth=1;shape=mxgraph.floorplan.office_chair;shadow=0;direction=north;rounded=0;comic=0;fontFamily=Verdana;fontSize=12;" parent="1" vertex="1">
          <mxGeometry x="598" y="509" width="43" height="40" as="geometry" />
        </mxCell>
        <mxCell id="48ef80bc37b76060-117" value="" style="verticalLabelPosition=bottom;html=1;verticalAlign=top;align=center;strokeWidth=1;shape=mxgraph.floorplan.office_chair;shadow=0;direction=south;rounded=0;comic=0;fontFamily=Verdana;fontSize=12;" parent="1" vertex="1">
          <mxGeometry x="695" y="509" width="43" height="40" as="geometry" />
        </mxCell>
        <mxCell id="48ef80bc37b76060-118" value="" style="shape=rect;shadow=0;rounded=0;comic=0;fontFamily=Verdana;fontSize=12;align=center;html=1;" parent="1" vertex="1">
          <mxGeometry x="618" y="479" width="100" height="100" as="geometry" />
        </mxCell>
        <mxCell id="48ef80bc37b76060-119" value="" style="verticalLabelPosition=bottom;html=1;verticalAlign=top;align=center;strokeWidth=1;shape=mxgraph.floorplan.office_chair;fillColor=#ffffff;strokeColor=#000000;shadow=0;rounded=0;comic=0;fontFamily=Verdana;fontSize=12;" parent="1" vertex="1">
          <mxGeometry x="648" y="699" width="40" height="43" as="geometry" />
        </mxCell>
        <mxCell id="48ef80bc37b76060-120" value="" style="verticalLabelPosition=bottom;html=1;verticalAlign=top;align=center;strokeWidth=1;shape=mxgraph.floorplan.office_chair;fillColor=#ffffff;strokeColor=#000000;shadow=0;direction=west;rounded=0;comic=0;fontFamily=Verdana;fontSize=12;" parent="1" vertex="1">
          <mxGeometry x="648" y="796" width="40" height="43" as="geometry" />
        </mxCell>
        <mxCell id="48ef80bc37b76060-121" value="" style="verticalLabelPosition=bottom;html=1;verticalAlign=top;align=center;strokeWidth=1;shape=mxgraph.floorplan.office_chair;fillColor=#ffffff;strokeColor=#000000;shadow=0;direction=north;rounded=0;comic=0;fontFamily=Verdana;fontSize=12;" parent="1" vertex="1">
          <mxGeometry x="598" y="749" width="43" height="40" as="geometry" />
        </mxCell>
        <mxCell id="48ef80bc37b76060-122" value="" style="verticalLabelPosition=bottom;html=1;verticalAlign=top;align=center;strokeWidth=1;shape=mxgraph.floorplan.office_chair;fillColor=#ffffff;strokeColor=#000000;shadow=0;direction=south;rounded=0;comic=0;fontFamily=Verdana;fontSize=12;" parent="1" vertex="1">
          <mxGeometry x="695" y="749" width="43" height="40" as="geometry" />
        </mxCell>
        <mxCell id="48ef80bc37b76060-123" value="" style="shape=rect;shadow=0;rounded=0;comic=0;fontFamily=Verdana;fontSize=12;align=center;html=1;" parent="1" vertex="1">
          <mxGeometry x="618" y="719" width="100" height="100" as="geometry" />
        </mxCell>
        <mxCell id="48ef80bc37b76060-124" value="" style="verticalLabelPosition=bottom;html=1;verticalAlign=top;align=center;strokeWidth=1;shape=mxgraph.floorplan.doorRight;rounded=0;shadow=0;comic=0;fontFamily=Verdana;fontSize=12;" parent="1" vertex="1">
          <mxGeometry x="307" y="1010" width="80" height="85" as="geometry" />
        </mxCell>
        <mxCell id="48ef80bc37b76060-125" value="" style="verticalLabelPosition=bottom;html=1;verticalAlign=top;align=center;strokeWidth=1;shape=mxgraph.floorplan.doorLeft;rounded=0;shadow=0;comic=0;fontFamily=Verdana;fontSize=12;" parent="1" vertex="1">
          <mxGeometry x="410" y="1011" width="80" height="85" as="geometry" />
        </mxCell>
        <mxCell id="48ef80bc37b76060-126" value="" style="verticalLabelPosition=bottom;html=1;verticalAlign=top;align=center;strokeWidth=1;shape=mxgraph.floorplan.doorLeft;rounded=0;shadow=0;comic=0;fontFamily=Verdana;fontSize=12;" parent="1" vertex="1">
          <mxGeometry x="858" y="1011" width="80" height="85" as="geometry" />
        </mxCell>
        <mxCell id="48ef80bc37b76060-127" value="" style="verticalLabelPosition=bottom;html=1;verticalAlign=top;align=center;strokeWidth=1;shape=mxgraph.floorplan.wallCorner;fillColor=#000000;rounded=0;shadow=0;comic=0;fontFamily=Verdana;fontSize=12;" parent="1" vertex="1">
          <mxGeometry x="7" y="3" width="100" height="385" as="geometry" />
        </mxCell>
        <mxCell id="48ef80bc37b76060-128" value="" style="verticalLabelPosition=bottom;html=1;verticalAlign=top;align=center;strokeWidth=1;shape=mxgraph.floorplan.wallU;fillColor=#000000;rounded=0;shadow=0;comic=0;fontFamily=Verdana;fontSize=12;rotation=90;" parent="1" vertex="1">
          <mxGeometry x="635" y="-620" width="1210" height="2456" as="geometry" />
        </mxCell>
        <mxCell id="48ef80bc37b76060-130" value="" style="verticalLabelPosition=bottom;html=1;verticalAlign=top;align=center;strokeWidth=1;shape=mxgraph.floorplan.wallU;fillColor=#000000;rounded=0;shadow=0;comic=0;fontFamily=Verdana;fontSize=12;rotation=90;" parent="1" vertex="1">
          <mxGeometry x="403" y="462" width="481" height="335" as="geometry" />
        </mxCell>
        <mxCell id="48ef80bc37b76060-133" value="" style="verticalLabelPosition=bottom;html=1;verticalAlign=top;align=center;strokeWidth=1;shape=mxgraph.floorplan.wallCorner;fillColor=#000000;direction=south;rounded=0;shadow=0;comic=0;fontFamily=Verdana;fontSize=12;" parent="1" vertex="1">
          <mxGeometry x="1888" y="391" width="221" height="266" as="geometry" />
        </mxCell>
        <mxCell id="48ef80bc37b76060-134" value="" style="verticalLabelPosition=bottom;html=1;verticalAlign=top;align=center;strokeWidth=1;shape=mxgraph.floorplan.wallCorner;fillColor=#000000;direction=west;rounded=0;shadow=0;comic=0;fontFamily=Verdana;fontSize=12;" parent="1" vertex="1">
          <mxGeometry x="1667" y="653" width="442" height="142" as="geometry" />
        </mxCell>
        <mxCell id="48ef80bc37b76060-135" value="" style="verticalLabelPosition=bottom;html=1;verticalAlign=top;align=center;strokeWidth=1;shape=mxgraph.floorplan.wallCorner;fillColor=#000000;direction=north;rounded=0;shadow=0;comic=0;fontFamily=Verdana;fontSize=12;" parent="1" vertex="1">
          <mxGeometry x="1487" y="397" width="186" height="398" as="geometry" />
        </mxCell>
        <mxCell id="48ef80bc37b76060-136" value="" style="verticalLabelPosition=bottom;html=1;verticalAlign=top;align=center;strokeWidth=1;shape=mxgraph.floorplan.doorDouble;rounded=0;shadow=0;comic=0;fontFamily=Verdana;fontSize=12;rotation=-90;" parent="1" vertex="1">
          <mxGeometry x="-28" y="426" width="160" height="85" as="geometry" />
        </mxCell>
        <mxCell id="48ef80bc37b76060-137" value="" style="verticalLabelPosition=bottom;html=1;verticalAlign=top;align=center;strokeWidth=1;shape=mxgraph.floorplan.wall;fillColor=#000000;rounded=0;shadow=0;comic=0;fontFamily=Verdana;fontSize=12;" parent="1" vertex="1">
          <mxGeometry x="8" y="784" width="204" height="10" as="geometry" />
        </mxCell>
        <mxCell id="48ef80bc37b76060-138" value="" style="verticalLabelPosition=bottom;html=1;verticalAlign=top;align=center;strokeWidth=1;shape=mxgraph.floorplan.wall;fillColor=#000000;direction=south;rounded=0;shadow=0;comic=0;fontFamily=Verdana;fontSize=12;" parent="1" vertex="1">
          <mxGeometry x="207" y="672" width="10" height="246" as="geometry" />
        </mxCell>
        <mxCell id="48ef80bc37b76060-142" value="" style="verticalLabelPosition=bottom;html=1;verticalAlign=top;align=center;strokeWidth=1;shape=mxgraph.floorplan.wallCorner;fillColor=#000000;direction=south;rounded=0;shadow=0;comic=0;fontFamily=Verdana;fontSize=12;" parent="1" vertex="1">
          <mxGeometry x="12" y="574" width="205" height="17" as="geometry" />
        </mxCell>
        <mxCell id="48ef80bc37b76060-139" value="" style="verticalLabelPosition=bottom;html=1;verticalAlign=top;align=center;strokeWidth=1;shape=mxgraph.floorplan.doorLeft;rounded=0;shadow=0;comic=0;fontFamily=Verdana;fontSize=12;rotation=90;" parent="1" vertex="1">
          <mxGeometry x="131" y="589" width="80" height="85" as="geometry" />
        </mxCell>
        <mxCell id="48ef80bc37b76060-143" value="" style="verticalLabelPosition=bottom;html=1;verticalAlign=top;align=center;strokeWidth=1;shape=mxgraph.floorplan.dresser;rounded=0;shadow=0;comic=0;fontFamily=Verdana;fontSize=12;rotation=90;" parent="1" vertex="1">
          <mxGeometry x="124" y="701" width="100" height="65" as="geometry" />
        </mxCell>
        <mxCell id="48ef80bc37b76060-144" value="" style="verticalLabelPosition=bottom;html=1;verticalAlign=top;align=center;strokeWidth=1;shape=mxgraph.floorplan.plant;rounded=0;shadow=0;comic=0;fontFamily=Verdana;fontSize=12;" parent="1" vertex="1">
          <mxGeometry x="20" y="589" width="47" height="51" as="geometry" />
        </mxCell>
        <mxCell id="48ef80bc37b76060-145" value="" style="group;rotation=90;" parent="1" vertex="1" connectable="0">
          <mxGeometry x="13" y="800" width="80" height="70" as="geometry" />
        </mxCell>
        <mxCell id="48ef80bc37b76060-146" value="" style="verticalLabelPosition=bottom;html=1;verticalAlign=top;align=center;strokeWidth=1;shape=mxgraph.floorplan.office_chair;shadow=0;rounded=0;comic=0;fontFamily=Verdana;fontSize=12;rotation=90;" parent="48ef80bc37b76060-145" vertex="1">
          <mxGeometry x="34" y="14" width="40" height="43" as="geometry" />
        </mxCell>
        <mxCell id="48ef80bc37b76060-147" value="" style="shape=rect;shadow=0;rounded=0;comic=0;fontFamily=Verdana;fontSize=12;align=center;html=1;rotation=90;" parent="48ef80bc37b76060-145" vertex="1">
          <mxGeometry x="-10" y="10" width="80" height="50" as="geometry" />
        </mxCell>
        <mxCell id="48ef80bc37b76060-148" value="" style="verticalLabelPosition=bottom;html=1;verticalAlign=top;align=center;strokeWidth=1;shape=mxgraph.floorplan.workstation;shadow=0;flipV=1;rounded=0;comic=0;fontFamily=Verdana;fontSize=12;rotation=90;" parent="48ef80bc37b76060-145" vertex="1">
          <mxGeometry y="15" width="50" height="40" as="geometry" />
        </mxCell>
        <mxCell id="48ef80bc37b76060-149" value="" style="verticalLabelPosition=bottom;html=1;verticalAlign=top;align=center;strokeWidth=1;shape=mxgraph.floorplan.wall;fillColor=#000000;rounded=0;shadow=0;comic=0;fontFamily=Verdana;fontSize=12;" parent="1" vertex="1">
          <mxGeometry x="8" y="1008" width="299" height="10" as="geometry" />
        </mxCell>
        <mxCell id="48ef80bc37b76060-150" value="" style="verticalLabelPosition=bottom;html=1;verticalAlign=top;align=center;strokeWidth=1;shape=mxgraph.floorplan.wall;fillColor=#000000;direction=south;rounded=0;shadow=0;comic=0;fontFamily=Verdana;fontSize=12;" parent="1" vertex="1">
          <mxGeometry x="207" y="999" width="10" height="18" as="geometry" />
        </mxCell>
        <mxCell id="48ef80bc37b76060-151" value="" style="verticalLabelPosition=bottom;html=1;verticalAlign=top;align=center;strokeWidth=1;shape=mxgraph.floorplan.doorLeft;rounded=0;shadow=0;comic=0;fontFamily=Verdana;fontSize=12;rotation=90;flipV=0;flipH=1;" parent="1" vertex="1">
          <mxGeometry x="131" y="916" width="80" height="85" as="geometry" />
        </mxCell>
        <mxCell id="48ef80bc37b76060-152" value="" style="verticalLabelPosition=bottom;html=1;verticalAlign=top;align=center;strokeWidth=1;shape=mxgraph.floorplan.dresser;rounded=0;shadow=0;comic=0;fontFamily=Verdana;fontSize=12;rotation=90;" parent="1" vertex="1">
          <mxGeometry x="124" y="811" width="100" height="65" as="geometry" />
        </mxCell>
        <mxCell id="48ef80bc37b76060-153" value="" style="verticalLabelPosition=bottom;html=1;verticalAlign=top;align=center;strokeWidth=1;shape=mxgraph.floorplan.plant;rounded=0;shadow=0;comic=0;fontFamily=Verdana;fontSize=12;" parent="1" vertex="1">
          <mxGeometry x="23" y="950" width="47" height="51" as="geometry" />
        </mxCell>
        <mxCell id="48ef80bc37b76060-50" value="" style="verticalLabelPosition=bottom;html=1;verticalAlign=top;align=center;strokeWidth=1;shape=mxgraph.floorplan.workstation;shadow=0;flipV=1;rounded=0;comic=0;fontFamily=Verdana;fontSize=12;" parent="1" vertex="1">
          <mxGeometry x="102" y="1162" width="50" height="40" as="geometry" />
        </mxCell>
        <mxCell id="48ef80bc37b76060-154" value="" style="verticalLabelPosition=bottom;html=1;verticalAlign=top;align=center;strokeWidth=1;shape=mxgraph.floorplan.flat_tv;rounded=0;shadow=0;comic=0;fontFamily=Verdana;fontSize=12;rotation=-165;" parent="1" vertex="1">
          <mxGeometry x="27" y="1185" width="70" height="10" as="geometry" />
        </mxCell>
        <mxCell id="48ef80bc37b76060-155" value="" style="verticalLabelPosition=bottom;html=1;verticalAlign=top;align=center;strokeWidth=1;shape=mxgraph.floorplan.flat_tv;rounded=0;shadow=0;comic=0;fontFamily=Verdana;fontSize=12;rotation=160;" parent="1" vertex="1">
          <mxGeometry x="158" y="1185" width="70" height="10" as="geometry" />
        </mxCell>
        <mxCell id="48ef80bc37b76060-156" value="" style="verticalLabelPosition=bottom;html=1;verticalAlign=top;align=center;strokeWidth=1;shape=mxgraph.floorplan.wall;fillColor=#000000;direction=south;rounded=0;shadow=0;comic=0;fontFamily=Verdana;fontSize=12;" parent="1" vertex="1">
          <mxGeometry x="7" y="549" width="10" height="664" as="geometry" />
        </mxCell>
        <mxCell id="48ef80bc37b76060-157" value="" style="verticalLabelPosition=bottom;html=1;verticalAlign=top;align=center;strokeWidth=1;shape=mxgraph.floorplan.wall;fillColor=#000000;direction=south;rounded=0;shadow=0;comic=0;fontFamily=Verdana;fontSize=12;" parent="1" vertex="1">
          <mxGeometry x="394" y="1017" width="10" height="191" as="geometry" />
        </mxCell>
        <mxCell id="48ef80bc37b76060-158" value="" style="verticalLabelPosition=bottom;html=1;verticalAlign=top;align=center;strokeWidth=1;shape=mxgraph.floorplan.wall;fillColor=#000000;rounded=0;shadow=0;comic=0;fontFamily=Verdana;fontSize=12;" parent="1" vertex="1">
          <mxGeometry x="388" y="1008" width="22" height="10" as="geometry" />
        </mxCell>
        <mxCell id="48ef80bc37b76060-159" value="" style="verticalLabelPosition=bottom;html=1;verticalAlign=top;align=center;strokeWidth=1;shape=mxgraph.floorplan.dresser;rounded=0;shadow=0;comic=0;fontFamily=Verdana;fontSize=12;flipV=1;rotation=90;" parent="1" vertex="1">
          <mxGeometry y="1036" width="100" height="65" as="geometry" />
        </mxCell>
        <mxCell id="48ef80bc37b76060-160" value="" style="verticalLabelPosition=bottom;html=1;verticalAlign=top;align=center;strokeWidth=1;shape=mxgraph.floorplan.plant;rounded=0;shadow=0;comic=0;fontFamily=Verdana;fontSize=12;" parent="1" vertex="1">
          <mxGeometry x="337" y="1149" width="47" height="51" as="geometry" />
        </mxCell>
        <mxCell id="48ef80bc37b76060-161" value="" style="verticalLabelPosition=bottom;html=1;verticalAlign=top;align=center;strokeWidth=1;shape=mxgraph.floorplan.plant;rounded=0;shadow=0;comic=0;fontFamily=Verdana;fontSize=12;" parent="1" vertex="1">
          <mxGeometry x="410" y="1147" width="47" height="51" as="geometry" />
        </mxCell>
        <mxCell id="48ef80bc37b76060-162" value="" style="verticalLabelPosition=bottom;html=1;verticalAlign=top;align=center;strokeWidth=1;shape=mxgraph.floorplan.wall;fillColor=#000000;direction=south;rounded=0;shadow=0;comic=0;fontFamily=Verdana;fontSize=12;" parent="1" vertex="1">
          <mxGeometry x="617" y="1017" width="10" height="191" as="geometry" />
        </mxCell>
        <mxCell id="48ef80bc37b76060-163" value="" style="verticalLabelPosition=bottom;html=1;verticalAlign=top;align=center;strokeWidth=1;shape=mxgraph.floorplan.wall;fillColor=#000000;rounded=0;shadow=0;comic=0;fontFamily=Verdana;fontSize=12;" parent="1" vertex="1">
          <mxGeometry x="490" y="1008" width="144" height="10" as="geometry" />
        </mxCell>
        <mxCell id="48ef80bc37b76060-164" value="" style="verticalLabelPosition=bottom;html=1;verticalAlign=top;align=center;strokeWidth=1;shape=mxgraph.floorplan.doorLeft;rounded=0;shadow=0;comic=0;fontFamily=Verdana;fontSize=12;" parent="1" vertex="1">
          <mxGeometry x="634" y="1011" width="80" height="85" as="geometry" />
        </mxCell>
        <mxCell id="48ef80bc37b76060-165" value="" style="group" parent="1" vertex="1" connectable="0">
          <mxGeometry x="757" y="1133" width="80" height="70" as="geometry" />
        </mxCell>
        <mxCell id="48ef80bc37b76060-4" value="" style="verticalLabelPosition=bottom;html=1;verticalAlign=top;align=center;strokeWidth=1;shape=mxgraph.floorplan.office_chair;shadow=0;rounded=0;comic=0;fontFamily=Verdana;fontSize=12;" parent="48ef80bc37b76060-165" vertex="1">
          <mxGeometry x="20" width="40" height="43" as="geometry" />
        </mxCell>
        <mxCell id="48ef80bc37b76060-5" value="" style="shape=rect;shadow=0;rounded=0;comic=0;fontFamily=Verdana;fontSize=12;align=center;html=1;" parent="48ef80bc37b76060-165" vertex="1">
          <mxGeometry y="20" width="80" height="50" as="geometry" />
        </mxCell>
        <mxCell id="48ef80bc37b76060-6" value="" style="verticalLabelPosition=bottom;html=1;verticalAlign=top;align=center;strokeWidth=1;shape=mxgraph.floorplan.workstation;shadow=0;flipV=1;rounded=0;comic=0;fontFamily=Verdana;fontSize=12;" parent="48ef80bc37b76060-165" vertex="1">
          <mxGeometry x="15" y="30" width="50" height="40" as="geometry" />
        </mxCell>
        <mxCell id="48ef80bc37b76060-166" value="" style="verticalLabelPosition=bottom;html=1;verticalAlign=top;align=center;strokeWidth=1;shape=mxgraph.floorplan.plant;rounded=0;shadow=0;comic=0;fontFamily=Verdana;fontSize=12;" parent="1" vertex="1">
          <mxGeometry x="633" y="1147" width="47" height="51" as="geometry" />
        </mxCell>
        <mxCell id="48ef80bc37b76060-169" value="" style="verticalLabelPosition=bottom;html=1;verticalAlign=top;align=center;strokeWidth=1;shape=mxgraph.floorplan.wall;fillColor=#000000;direction=south;rounded=0;shadow=0;comic=0;fontFamily=Verdana;fontSize=12;" parent="1" vertex="1">
          <mxGeometry x="842" y="1018" width="10" height="191" as="geometry" />
        </mxCell>
        <mxCell id="48ef80bc37b76060-170" value="" style="verticalLabelPosition=bottom;html=1;verticalAlign=top;align=center;strokeWidth=1;shape=mxgraph.floorplan.wall;fillColor=#000000;rounded=0;shadow=0;comic=0;fontFamily=Verdana;fontSize=12;" parent="1" vertex="1">
          <mxGeometry x="714" y="1008" width="144" height="10" as="geometry" />
        </mxCell>
        <mxCell id="48ef80bc37b76060-171" value="" style="verticalLabelPosition=bottom;html=1;verticalAlign=top;align=center;strokeWidth=1;shape=mxgraph.floorplan.wall;fillColor=#000000;rounded=0;shadow=0;comic=0;fontFamily=Verdana;fontSize=12;" parent="1" vertex="1">
          <mxGeometry x="938" y="1008" width="129" height="10" as="geometry" />
        </mxCell>
        <mxCell id="48ef80bc37b76060-174" value="" style="verticalLabelPosition=bottom;html=1;verticalAlign=top;align=center;strokeWidth=1;shape=mxgraph.floorplan.plant;rounded=0;shadow=0;comic=0;fontFamily=Verdana;fontSize=12;" parent="1" vertex="1">
          <mxGeometry x="858" y="1152" width="47" height="51" as="geometry" />
        </mxCell>
        <mxCell id="48ef80bc37b76060-175" value="" style="verticalLabelPosition=bottom;html=1;verticalAlign=top;align=center;strokeWidth=1;shape=mxgraph.floorplan.dresser;rounded=0;shadow=0;comic=0;fontFamily=Verdana;fontSize=12;rotation=0;" parent="1" vertex="1">
          <mxGeometry x="517" y="1018" width="100" height="65" as="geometry" />
        </mxCell>
        <mxCell id="48ef80bc37b76060-176" value="" style="verticalLabelPosition=bottom;html=1;verticalAlign=top;align=center;strokeWidth=1;shape=mxgraph.floorplan.dresser;rounded=0;shadow=0;comic=0;fontFamily=Verdana;fontSize=12;rotation=0;" parent="1" vertex="1">
          <mxGeometry x="741" y="1018" width="100" height="65" as="geometry" />
        </mxCell>
        <mxCell id="48ef80bc37b76060-177" value="" style="verticalLabelPosition=bottom;html=1;verticalAlign=top;align=center;strokeWidth=1;shape=mxgraph.floorplan.dresser;rounded=0;shadow=0;comic=0;fontFamily=Verdana;fontSize=12;rotation=0;" parent="1" vertex="1">
          <mxGeometry x="967" y="1018" width="100" height="65" as="geometry" />
        </mxCell>
        <mxCell id="48ef80bc37b76060-178" value="" style="verticalLabelPosition=bottom;html=1;verticalAlign=top;align=center;strokeWidth=1;shape=mxgraph.floorplan.wallCorner;fillColor=#000000;rounded=0;shadow=0;comic=0;fontFamily=Verdana;fontSize=12;" parent="1" vertex="1">
          <mxGeometry x="1066" y="957" width="21" height="250" as="geometry" />
        </mxCell>
        <mxCell id="48ef80bc37b76060-179" value="" style="verticalLabelPosition=bottom;html=1;verticalAlign=top;align=center;strokeWidth=1;shape=mxgraph.floorplan.wallCorner;fillColor=#000000;direction=south;rounded=0;shadow=0;comic=0;fontFamily=Verdana;fontSize=12;" parent="1" vertex="1">
          <mxGeometry x="1247" y="957" width="330" height="254" as="geometry" />
        </mxCell>
        <mxCell id="48ef80bc37b76060-180" value="" style="verticalLabelPosition=bottom;html=1;verticalAlign=top;align=center;strokeWidth=1;shape=mxgraph.floorplan.doorDouble;rounded=0;shadow=0;comic=0;fontFamily=Verdana;fontSize=12;" parent="1" vertex="1">
          <mxGeometry x="1087" y="960" width="160" height="85" as="geometry" />
        </mxCell>
        <mxCell id="48ef80bc37b76060-181" value="" style="verticalLabelPosition=bottom;html=1;verticalAlign=top;align=center;strokeWidth=1;shape=mxgraph.floorplan.plant;rounded=0;shadow=0;comic=0;fillColor=#FFFFFF;fontFamily=Verdana;fontSize=12;" parent="1" vertex="1">
          <mxGeometry x="1087" y="1140" width="47" height="51" as="geometry" />
        </mxCell>
        <mxCell id="48ef80bc37b76060-182" value="" style="verticalLabelPosition=bottom;html=1;verticalAlign=top;align=center;strokeWidth=1;shape=mxgraph.floorplan.plant;rounded=0;shadow=0;comic=0;fontFamily=Verdana;fontSize=12;" parent="1" vertex="1">
          <mxGeometry x="1506" y="971" width="47" height="51" as="geometry" />
        </mxCell>
        <mxCell id="48ef80bc37b76060-183" value="" style="verticalLabelPosition=bottom;html=1;verticalAlign=top;align=center;strokeWidth=1;shape=mxgraph.floorplan.plant;rounded=0;shadow=0;comic=0;fontFamily=Verdana;fontSize=12;" parent="1" vertex="1">
          <mxGeometry x="1507" y="1147" width="47" height="51" as="geometry" />
        </mxCell>
        <mxCell id="48ef80bc37b76060-184" value="" style="verticalLabelPosition=bottom;html=1;verticalAlign=top;align=center;strokeWidth=1;shape=mxgraph.floorplan.window;rounded=0;shadow=0;comic=0;fontFamily=Verdana;fontSize=12;" parent="1" vertex="1">
          <mxGeometry x="1267" y="957" width="120" height="10" as="geometry" />
        </mxCell>
        <mxCell id="48ef80bc37b76060-185" value="" style="verticalLabelPosition=bottom;html=1;verticalAlign=top;align=center;strokeWidth=1;shape=mxgraph.floorplan.window;rounded=0;shadow=0;comic=0;fontFamily=Verdana;fontSize=12;" parent="1" vertex="1">
          <mxGeometry x="1407" y="957" width="110" height="10" as="geometry" />
        </mxCell>
        <mxCell id="48ef80bc37b76060-186" value="" style="verticalLabelPosition=bottom;html=1;verticalAlign=top;align=center;strokeWidth=1;shape=mxgraph.floorplan.wall;fillColor=#000000;rounded=0;shadow=0;comic=0;fontFamily=Verdana;fontSize=12;" parent="1" vertex="1">
          <mxGeometry x="1577" y="1008" width="10" height="10" as="geometry" />
        </mxCell>
        <mxCell id="48ef80bc37b76060-187" value="" style="verticalLabelPosition=bottom;html=1;verticalAlign=top;align=center;strokeWidth=1;shape=mxgraph.floorplan.doorLeft;rounded=0;shadow=0;comic=0;fontFamily=Verdana;fontSize=12;" parent="1" vertex="1">
          <mxGeometry x="1587" y="1011" width="80" height="85" as="geometry" />
        </mxCell>
        <mxCell id="48ef80bc37b76060-188" value="" style="verticalLabelPosition=bottom;html=1;verticalAlign=top;align=center;strokeWidth=1;shape=mxgraph.floorplan.wall;fillColor=#000000;rounded=0;shadow=0;comic=0;fontFamily=Verdana;fontSize=12;" parent="1" vertex="1">
          <mxGeometry x="1667" y="1008" width="270" height="10" as="geometry" />
        </mxCell>
        <mxCell id="48ef80bc37b76060-189" value="" style="verticalLabelPosition=bottom;html=1;verticalAlign=top;align=center;strokeWidth=1;shape=mxgraph.floorplan.wall;fillColor=#000000;direction=south;rounded=0;shadow=0;comic=0;fontFamily=Verdana;fontSize=12;" parent="1" vertex="1">
          <mxGeometry x="1922" y="1018" width="10" height="191" as="geometry" />
        </mxCell>
        <mxCell id="48ef80bc37b76060-190" value="" style="group;rotation=-90;" parent="1" vertex="1" connectable="0">
          <mxGeometry x="1846" y="1044" width="110" height="70" as="geometry" />
        </mxCell>
        <mxCell id="48ef80bc37b76060-21" value="" style="verticalLabelPosition=bottom;html=1;verticalAlign=top;align=center;strokeWidth=1;shape=mxgraph.floorplan.office_chair;shadow=0;rounded=0;comic=0;fontFamily=Verdana;fontSize=12;rotation=-90;" parent="48ef80bc37b76060-190" vertex="1">
          <mxGeometry x="7" y="14" width="40" height="43" as="geometry" />
        </mxCell>
        <mxCell id="48ef80bc37b76060-22" value="" style="shape=rect;shadow=0;rounded=0;comic=0;fontFamily=Verdana;fontSize=12;align=center;html=1;rotation=-90;" parent="48ef80bc37b76060-190" vertex="1">
          <mxGeometry x="-10" y="10" width="120" height="50" as="geometry" />
        </mxCell>
        <mxCell id="48ef80bc37b76060-23" value="" style="verticalLabelPosition=bottom;html=1;verticalAlign=top;align=center;strokeWidth=1;shape=mxgraph.floorplan.workstation;shadow=0;flipV=1;rounded=0;comic=0;fontFamily=Verdana;fontSize=12;rotation=-90;" parent="48ef80bc37b76060-190" vertex="1">
          <mxGeometry x="30" y="15" width="50" height="40" as="geometry" />
        </mxCell>
        <mxCell id="48ef80bc37b76060-191" value="" style="verticalLabelPosition=bottom;html=1;verticalAlign=top;align=center;strokeWidth=1;shape=mxgraph.floorplan.office_chair;shadow=0;rounded=0;comic=0;fontFamily=Verdana;fontSize=12;" parent="1" vertex="1">
          <mxGeometry x="1712" y="1082" width="40" height="43" as="geometry" />
        </mxCell>
        <mxCell id="48ef80bc37b76060-193" value="" style="verticalLabelPosition=bottom;html=1;verticalAlign=top;align=center;strokeWidth=1;shape=mxgraph.floorplan.office_chair;shadow=0;direction=north;rounded=0;comic=0;fontFamily=Verdana;fontSize=12;" parent="1" vertex="1">
          <mxGeometry x="1662" y="1132" width="43" height="40" as="geometry" />
        </mxCell>
        <mxCell id="48ef80bc37b76060-194" value="" style="verticalLabelPosition=bottom;html=1;verticalAlign=top;align=center;strokeWidth=1;shape=mxgraph.floorplan.office_chair;shadow=0;direction=south;rounded=0;comic=0;fontFamily=Verdana;fontSize=12;" parent="1" vertex="1">
          <mxGeometry x="1759" y="1132" width="43" height="40" as="geometry" />
        </mxCell>
        <mxCell id="48ef80bc37b76060-195" value="" style="shape=rect;shadow=0;rounded=0;comic=0;fontFamily=Verdana;fontSize=12;align=center;html=1;" parent="1" vertex="1">
          <mxGeometry x="1682" y="1102" width="100" height="100" as="geometry" />
        </mxCell>
        <mxCell id="48ef80bc37b76060-196" value="" style="verticalLabelPosition=bottom;html=1;verticalAlign=top;align=center;strokeWidth=1;shape=mxgraph.floorplan.plant;rounded=0;shadow=0;comic=0;fontFamily=Verdana;fontSize=12;" parent="1" vertex="1">
          <mxGeometry x="1582" y="1150" width="47" height="51" as="geometry" />
        </mxCell>
        <mxCell id="48ef80bc37b76060-197" value="" style="verticalLabelPosition=bottom;html=1;verticalAlign=top;align=center;strokeWidth=1;shape=mxgraph.floorplan.plant;rounded=0;shadow=0;comic=0;fillColor=#FFFFFF;fontFamily=Verdana;fontSize=12;" parent="1" vertex="1">
          <mxGeometry x="1870" y="1148" width="47" height="51" as="geometry" />
        </mxCell>
        <mxCell id="48ef80bc37b76060-198" value="" style="group" parent="1" vertex="1" connectable="0">
          <mxGeometry x="2057" y="1132" width="80" height="70" as="geometry" />
        </mxCell>
        <mxCell id="48ef80bc37b76060-199" value="" style="verticalLabelPosition=bottom;html=1;verticalAlign=top;align=center;strokeWidth=1;shape=mxgraph.floorplan.office_chair;shadow=0;rounded=0;comic=0;fontFamily=Verdana;fontSize=12;" parent="48ef80bc37b76060-198" vertex="1">
          <mxGeometry x="20" width="40" height="43" as="geometry" />
        </mxCell>
        <mxCell id="48ef80bc37b76060-200" value="" style="shape=rect;shadow=0;rounded=0;comic=0;fontFamily=Verdana;fontSize=12;align=center;html=1;" parent="48ef80bc37b76060-198" vertex="1">
          <mxGeometry y="20" width="80" height="50" as="geometry" />
        </mxCell>
        <mxCell id="48ef80bc37b76060-201" value="" style="verticalLabelPosition=bottom;html=1;verticalAlign=top;align=center;strokeWidth=1;shape=mxgraph.floorplan.workstation;shadow=0;flipV=1;rounded=0;comic=0;fontFamily=Verdana;fontSize=12;" parent="48ef80bc37b76060-198" vertex="1">
          <mxGeometry x="15" y="30" width="50" height="40" as="geometry" />
        </mxCell>
        <mxCell id="48ef80bc37b76060-202" value="" style="verticalLabelPosition=bottom;html=1;verticalAlign=top;align=center;strokeWidth=1;shape=mxgraph.floorplan.doorLeft;rounded=0;shadow=0;comic=0;fontFamily=Verdana;fontSize=12;" parent="1" vertex="1">
          <mxGeometry x="1937" y="1011" width="80" height="85" as="geometry" />
        </mxCell>
        <mxCell id="48ef80bc37b76060-203" value="" style="verticalLabelPosition=bottom;html=1;verticalAlign=top;align=center;strokeWidth=1;shape=mxgraph.floorplan.plant;rounded=0;shadow=0;comic=0;fontFamily=Verdana;fontSize=12;" parent="1" vertex="1">
          <mxGeometry x="1937" y="1147" width="47" height="51" as="geometry" />
        </mxCell>
        <mxCell id="48ef80bc37b76060-204" value="" style="verticalLabelPosition=bottom;html=1;verticalAlign=top;align=center;strokeWidth=1;shape=mxgraph.floorplan.wall;fillColor=#000000;direction=south;rounded=0;shadow=0;comic=0;fontFamily=Verdana;fontSize=12;" parent="1" vertex="1">
          <mxGeometry x="2144" y="1017" width="10" height="191" as="geometry" />
        </mxCell>
        <mxCell id="48ef80bc37b76060-205" value="" style="verticalLabelPosition=bottom;html=1;verticalAlign=top;align=center;strokeWidth=1;shape=mxgraph.floorplan.wall;fillColor=#000000;rounded=0;shadow=0;comic=0;fontFamily=Verdana;fontSize=12;" parent="1" vertex="1">
          <mxGeometry x="2017" y="1008" width="144" height="10" as="geometry" />
        </mxCell>
        <mxCell id="48ef80bc37b76060-206" value="" style="verticalLabelPosition=bottom;html=1;verticalAlign=top;align=center;strokeWidth=1;shape=mxgraph.floorplan.doorLeft;rounded=0;shadow=0;comic=0;fontFamily=Verdana;fontSize=12;" parent="1" vertex="1">
          <mxGeometry x="2161" y="1011" width="80" height="85" as="geometry" />
        </mxCell>
        <mxCell id="48ef80bc37b76060-211" value="" style="verticalLabelPosition=bottom;html=1;verticalAlign=top;align=center;strokeWidth=1;shape=mxgraph.floorplan.plant;rounded=0;shadow=0;comic=0;fontFamily=Verdana;fontSize=12;" parent="1" vertex="1">
          <mxGeometry x="2160" y="1147" width="47" height="51" as="geometry" />
        </mxCell>
        <mxCell id="48ef80bc37b76060-213" value="" style="verticalLabelPosition=bottom;html=1;verticalAlign=top;align=center;strokeWidth=1;shape=mxgraph.floorplan.dresser;rounded=0;shadow=0;comic=0;fontFamily=Verdana;fontSize=12;rotation=0;" parent="1" vertex="1">
          <mxGeometry x="2044" y="1018" width="100" height="65" as="geometry" />
        </mxCell>
        <mxCell id="48ef80bc37b76060-214" value="" style="verticalLabelPosition=bottom;html=1;verticalAlign=top;align=center;strokeWidth=1;shape=mxgraph.floorplan.dresser;rounded=0;shadow=0;comic=0;fontFamily=Verdana;fontSize=12;rotation=0;" parent="1" vertex="1">
          <mxGeometry x="2268" y="1018" width="100" height="65" as="geometry" />
        </mxCell>
        <mxCell id="48ef80bc37b76060-215" value="" style="verticalLabelPosition=bottom;html=1;verticalAlign=top;align=center;strokeWidth=1;shape=mxgraph.floorplan.wall;fillColor=#000000;rounded=0;shadow=0;comic=0;fontFamily=Verdana;fontSize=12;" parent="1" vertex="1">
          <mxGeometry x="2262" y="783" width="204" height="10" as="geometry" />
        </mxCell>
        <mxCell id="48ef80bc37b76060-216" value="" style="verticalLabelPosition=bottom;html=1;verticalAlign=top;align=center;strokeWidth=1;shape=mxgraph.floorplan.wall;fillColor=#000000;direction=south;rounded=0;shadow=0;comic=0;fontFamily=Verdana;fontSize=12;" parent="1" vertex="1">
          <mxGeometry x="2252" y="777" width="10" height="139" as="geometry" />
        </mxCell>
        <mxCell id="48ef80bc37b76060-217" value="" style="verticalLabelPosition=bottom;html=1;verticalAlign=top;align=center;strokeWidth=1;shape=mxgraph.floorplan.wall;fillColor=#000000;rounded=0;shadow=0;comic=0;fontFamily=Verdana;fontSize=12;" parent="1" vertex="1">
          <mxGeometry x="2241" y="1008" width="216" height="10" as="geometry" />
        </mxCell>
        <mxCell id="48ef80bc37b76060-208" value="" style="verticalLabelPosition=bottom;html=1;verticalAlign=top;align=center;strokeWidth=1;shape=mxgraph.floorplan.office_chair;shadow=0;rounded=0;comic=0;fontFamily=Verdana;fontSize=12;rotation=-90;" parent="1" vertex="1">
          <mxGeometry x="2390" y="1119" width="40" height="43" as="geometry" />
        </mxCell>
        <mxCell id="48ef80bc37b76060-209" value="" style="shape=rect;shadow=0;rounded=0;comic=0;fontFamily=Verdana;fontSize=12;align=center;html=1;rotation=-90;" parent="1" vertex="1">
          <mxGeometry x="2371" y="1115" width="124" height="50" as="geometry" />
        </mxCell>
        <mxCell id="48ef80bc37b76060-210" value="" style="verticalLabelPosition=bottom;html=1;verticalAlign=top;align=center;strokeWidth=1;shape=mxgraph.floorplan.workstation;shadow=0;flipV=1;rounded=0;comic=0;fontFamily=Verdana;fontSize=12;rotation=-90;" parent="1" vertex="1">
          <mxGeometry x="2413" y="1120" width="50" height="40" as="geometry" />
        </mxCell>
        <mxCell id="48ef80bc37b76060-219" value="" style="verticalLabelPosition=bottom;html=1;verticalAlign=top;align=center;strokeWidth=1;shape=mxgraph.floorplan.plant;rounded=0;shadow=0;comic=0;fontFamily=Verdana;fontSize=12;" parent="1" vertex="1">
          <mxGeometry x="2397" y="1022" width="47" height="51" as="geometry" />
        </mxCell>
        <mxCell id="48ef80bc37b76060-221" value="" style="verticalLabelPosition=bottom;html=1;verticalAlign=top;align=center;strokeWidth=1;shape=mxgraph.floorplan.wall;fillColor=#000000;direction=south;rounded=0;shadow=0;comic=0;fontFamily=Verdana;fontSize=12;" parent="1" vertex="1">
          <mxGeometry x="2252" y="997" width="10" height="20" as="geometry" />
        </mxCell>
        <mxCell id="48ef80bc37b76060-222" value="" style="group" parent="1" vertex="1" connectable="0">
          <mxGeometry x="2382" y="799" width="80" height="70" as="geometry" />
        </mxCell>
        <mxCell id="48ef80bc37b76060-33" value="" style="group;rotation=-90;" parent="48ef80bc37b76060-222" vertex="1" connectable="0">
          <mxGeometry width="80" height="70" as="geometry" />
        </mxCell>
        <mxCell id="48ef80bc37b76060-30" value="" style="verticalLabelPosition=bottom;html=1;verticalAlign=top;align=center;strokeWidth=1;shape=mxgraph.floorplan.office_chair;fillColor=#ffffff;strokeColor=#000000;shadow=0;rounded=0;comic=0;fontFamily=Verdana;fontSize=12;rotation=-90;" parent="48ef80bc37b76060-33" vertex="1">
          <mxGeometry x="7" y="14" width="40" height="43" as="geometry" />
        </mxCell>
        <mxCell id="48ef80bc37b76060-31" value="" style="shape=rect;fillColor=#ffffff;strokeColor=#000000;shadow=0;rounded=0;comic=0;fontFamily=Verdana;fontSize=12;align=center;html=1;rotation=-90;" parent="48ef80bc37b76060-33" vertex="1">
          <mxGeometry x="10" y="10" width="80" height="50" as="geometry" />
        </mxCell>
        <mxCell id="48ef80bc37b76060-32" value="" style="verticalLabelPosition=bottom;html=1;verticalAlign=top;align=center;strokeWidth=1;shape=mxgraph.floorplan.workstation;fillColor=#ffffff;strokeColor=#000000;shadow=0;flipV=1;rounded=0;comic=0;fontFamily=Verdana;fontSize=12;rotation=-90;" parent="48ef80bc37b76060-33" vertex="1">
          <mxGeometry x="30" y="15" width="50" height="40" as="geometry" />
        </mxCell>
        <mxCell id="48ef80bc37b76060-223" value="" style="verticalLabelPosition=bottom;html=1;verticalAlign=top;align=center;strokeWidth=1;shape=mxgraph.floorplan.doorLeft;rounded=0;shadow=0;comic=0;fontFamily=Verdana;fontSize=12;rotation=90;flipV=1;flipH=1;" parent="1" vertex="1">
          <mxGeometry x="2257" y="914" width="80" height="85" as="geometry" />
        </mxCell>
        <mxCell id="48ef80bc37b76060-226" value="" style="verticalLabelPosition=bottom;html=1;verticalAlign=top;align=center;strokeWidth=1;shape=mxgraph.floorplan.plant;rounded=0;shadow=0;comic=0;fontFamily=Verdana;fontSize=12;" parent="1" vertex="1">
          <mxGeometry x="2407" y="948" width="47" height="51" as="geometry" />
        </mxCell>
        <mxCell id="48ef80bc37b76060-227" value="" style="verticalLabelPosition=bottom;html=1;verticalAlign=top;align=center;strokeWidth=1;shape=mxgraph.floorplan.dresser;rounded=0;shadow=0;comic=0;fontFamily=Verdana;fontSize=12;rotation=-90;" parent="1" vertex="1">
          <mxGeometry x="2245" y="811" width="100" height="65" as="geometry" />
        </mxCell>
        <mxCell id="48ef80bc37b76060-228" value="" style="verticalLabelPosition=bottom;html=1;verticalAlign=top;align=center;strokeWidth=1;shape=mxgraph.floorplan.wall;fillColor=#000000;rounded=0;shadow=0;comic=0;fontFamily=Verdana;fontSize=12;" parent="1" vertex="1">
          <mxGeometry x="2262" y="563" width="204" height="10" as="geometry" />
        </mxCell>
        <mxCell id="48ef80bc37b76060-229" value="" style="verticalLabelPosition=bottom;html=1;verticalAlign=top;align=center;strokeWidth=1;shape=mxgraph.floorplan.wall;fillColor=#000000;direction=south;rounded=0;shadow=0;comic=0;fontFamily=Verdana;fontSize=12;" parent="1" vertex="1">
          <mxGeometry x="2252" y="557" width="10" height="139" as="geometry" />
        </mxCell>
        <mxCell id="48ef80bc37b76060-230" value="" style="group" parent="1" vertex="1" connectable="0">
          <mxGeometry x="2382" y="579" width="80" height="70" as="geometry" />
        </mxCell>
        <mxCell id="48ef80bc37b76060-231" value="" style="group;rotation=-90;" parent="48ef80bc37b76060-230" vertex="1" connectable="0">
          <mxGeometry width="80" height="70" as="geometry" />
        </mxCell>
        <mxCell id="48ef80bc37b76060-232" value="" style="verticalLabelPosition=bottom;html=1;verticalAlign=top;align=center;strokeWidth=1;shape=mxgraph.floorplan.office_chair;shadow=0;rounded=0;comic=0;fontFamily=Verdana;fontSize=12;rotation=-90;" parent="48ef80bc37b76060-231" vertex="1">
          <mxGeometry x="7" y="14" width="40" height="43" as="geometry" />
        </mxCell>
        <mxCell id="48ef80bc37b76060-233" value="" style="shape=rect;shadow=0;rounded=0;comic=0;fontFamily=Verdana;fontSize=12;align=center;html=1;rotation=-90;" parent="48ef80bc37b76060-231" vertex="1">
          <mxGeometry x="10" y="10" width="80" height="50" as="geometry" />
        </mxCell>
        <mxCell id="48ef80bc37b76060-234" value="" style="verticalLabelPosition=bottom;html=1;verticalAlign=top;align=center;strokeWidth=1;shape=mxgraph.floorplan.workstation;shadow=0;flipV=1;rounded=0;comic=0;fontFamily=Verdana;fontSize=12;rotation=-90;" parent="48ef80bc37b76060-231" vertex="1">
          <mxGeometry x="30" y="15" width="50" height="40" as="geometry" />
        </mxCell>
        <mxCell id="48ef80bc37b76060-235" value="" style="verticalLabelPosition=bottom;html=1;verticalAlign=top;align=center;strokeWidth=1;shape=mxgraph.floorplan.doorLeft;rounded=0;shadow=0;comic=0;fontFamily=Verdana;fontSize=12;rotation=90;flipV=1;flipH=1;" parent="1" vertex="1">
          <mxGeometry x="2257" y="694" width="80" height="85" as="geometry" />
        </mxCell>
        <mxCell id="48ef80bc37b76060-236" value="" style="verticalLabelPosition=bottom;html=1;verticalAlign=top;align=center;strokeWidth=1;shape=mxgraph.floorplan.plant;rounded=0;shadow=0;comic=0;fontFamily=Verdana;fontSize=12;" parent="1" vertex="1">
          <mxGeometry x="2407" y="728" width="47" height="51" as="geometry" />
        </mxCell>
        <mxCell id="48ef80bc37b76060-237" value="" style="verticalLabelPosition=bottom;html=1;verticalAlign=top;align=center;strokeWidth=1;shape=mxgraph.floorplan.dresser;rounded=0;shadow=0;comic=0;fontFamily=Verdana;fontSize=12;rotation=-90;" parent="1" vertex="1">
          <mxGeometry x="2245" y="591" width="100" height="65" as="geometry" />
        </mxCell>
        <mxCell id="48ef80bc37b76060-238" value="" style="verticalLabelPosition=bottom;html=1;verticalAlign=top;align=center;strokeWidth=1;shape=mxgraph.floorplan.wall;fillColor=#000000;rounded=0;shadow=0;comic=0;fontFamily=Verdana;fontSize=12;" parent="1" vertex="1">
          <mxGeometry x="2262" y="343" width="204" height="10" as="geometry" />
        </mxCell>
        <mxCell id="48ef80bc37b76060-239" value="" style="verticalLabelPosition=bottom;html=1;verticalAlign=top;align=center;strokeWidth=1;shape=mxgraph.floorplan.wall;fillColor=#000000;direction=south;rounded=0;shadow=0;comic=0;fontFamily=Verdana;fontSize=12;" parent="1" vertex="1">
          <mxGeometry x="2252" y="337" width="10" height="139" as="geometry" />
        </mxCell>
        <mxCell id="48ef80bc37b76060-240" value="" style="group" parent="1" vertex="1" connectable="0">
          <mxGeometry x="2382" y="359" width="80" height="70" as="geometry" />
        </mxCell>
        <mxCell id="48ef80bc37b76060-241" value="" style="group;rotation=-90;" parent="48ef80bc37b76060-240" vertex="1" connectable="0">
          <mxGeometry width="80" height="70" as="geometry" />
        </mxCell>
        <mxCell id="48ef80bc37b76060-242" value="" style="verticalLabelPosition=bottom;html=1;verticalAlign=top;align=center;strokeWidth=1;shape=mxgraph.floorplan.office_chair;shadow=0;rounded=0;comic=0;fontFamily=Verdana;fontSize=12;rotation=-90;" parent="48ef80bc37b76060-241" vertex="1">
          <mxGeometry x="7" y="14" width="40" height="43" as="geometry" />
        </mxCell>
        <mxCell id="48ef80bc37b76060-243" value="" style="shape=rect;shadow=0;rounded=0;comic=0;fontFamily=Verdana;fontSize=12;align=center;html=1;rotation=-90;" parent="48ef80bc37b76060-241" vertex="1">
          <mxGeometry x="10" y="10" width="80" height="50" as="geometry" />
        </mxCell>
        <mxCell id="48ef80bc37b76060-244" value="" style="verticalLabelPosition=bottom;html=1;verticalAlign=top;align=center;strokeWidth=1;shape=mxgraph.floorplan.workstation;shadow=0;flipV=1;rounded=0;comic=0;fontFamily=Verdana;fontSize=12;rotation=-90;" parent="48ef80bc37b76060-241" vertex="1">
          <mxGeometry x="30" y="15" width="50" height="40" as="geometry" />
        </mxCell>
        <mxCell id="48ef80bc37b76060-245" value="" style="verticalLabelPosition=bottom;html=1;verticalAlign=top;align=center;strokeWidth=1;shape=mxgraph.floorplan.doorLeft;rounded=0;shadow=0;comic=0;fontFamily=Verdana;fontSize=12;rotation=90;flipV=1;flipH=1;" parent="1" vertex="1">
          <mxGeometry x="2257" y="474" width="80" height="85" as="geometry" />
        </mxCell>
        <mxCell id="48ef80bc37b76060-246" value="" style="verticalLabelPosition=bottom;html=1;verticalAlign=top;align=center;strokeWidth=1;shape=mxgraph.floorplan.plant;rounded=0;shadow=0;comic=0;fontFamily=Verdana;fontSize=12;" parent="1" vertex="1">
          <mxGeometry x="2407" y="508" width="47" height="51" as="geometry" />
        </mxCell>
        <mxCell id="48ef80bc37b76060-247" value="" style="verticalLabelPosition=bottom;html=1;verticalAlign=top;align=center;strokeWidth=1;shape=mxgraph.floorplan.dresser;rounded=0;shadow=0;comic=0;fontFamily=Verdana;fontSize=12;rotation=-90;" parent="1" vertex="1">
          <mxGeometry x="2245" y="371" width="100" height="65" as="geometry" />
        </mxCell>
        <mxCell id="48ef80bc37b76060-249" value="" style="verticalLabelPosition=bottom;html=1;verticalAlign=top;align=center;strokeWidth=1;shape=mxgraph.floorplan.wall;fillColor=#000000;direction=south;rounded=0;shadow=0;comic=0;fontFamily=Verdana;fontSize=12;" parent="1" vertex="1">
          <mxGeometry x="2252" y="7" width="10" height="248" as="geometry" />
        </mxCell>
        <mxCell id="48ef80bc37b76060-255" value="" style="verticalLabelPosition=bottom;html=1;verticalAlign=top;align=center;strokeWidth=1;shape=mxgraph.floorplan.doorLeft;rounded=0;shadow=0;comic=0;fontFamily=Verdana;fontSize=12;rotation=90;flipV=1;flipH=1;" parent="1" vertex="1">
          <mxGeometry x="2257" y="253" width="80" height="85" as="geometry" />
        </mxCell>
        <mxCell id="48ef80bc37b76060-256" value="" style="verticalLabelPosition=bottom;html=1;verticalAlign=top;align=center;strokeWidth=1;shape=mxgraph.floorplan.plant;rounded=0;shadow=0;comic=0;fontFamily=Verdana;fontSize=12;" parent="1" vertex="1">
          <mxGeometry x="2407" y="287" width="47" height="51" as="geometry" />
        </mxCell>
        <mxCell id="48ef80bc37b76060-257" value="" style="verticalLabelPosition=bottom;html=1;verticalAlign=top;align=center;strokeWidth=1;shape=mxgraph.floorplan.dresser;rounded=0;shadow=0;comic=0;fontFamily=Verdana;fontSize=12;rotation=0;" parent="1" vertex="1">
          <mxGeometry x="2264" y="13" width="100" height="65" as="geometry" />
        </mxCell>
        <mxCell id="48ef80bc37b76060-258" value="" style="verticalLabelPosition=bottom;html=1;verticalAlign=top;align=center;strokeWidth=1;shape=mxgraph.floorplan.wallCorner;fillColor=#000000;direction=west;rounded=0;shadow=0;comic=0;fontFamily=Verdana;fontSize=12;" parent="1" vertex="1">
          <mxGeometry x="15" y="367" width="202" height="12" as="geometry" />
        </mxCell>
        <mxCell id="48ef80bc37b76060-260" value="" style="verticalLabelPosition=bottom;html=1;verticalAlign=top;align=center;strokeWidth=1;shape=mxgraph.floorplan.wall;fillColor=#000000;direction=south;rounded=0;shadow=0;comic=0;fontFamily=Verdana;fontSize=12;" parent="1" vertex="1">
          <mxGeometry x="207" y="7" width="10" height="279" as="geometry" />
        </mxCell>
        <mxCell id="48ef80bc37b76060-261" value="" style="verticalLabelPosition=bottom;html=1;verticalAlign=top;align=center;strokeWidth=1;shape=mxgraph.floorplan.doorLeft;rounded=0;shadow=0;comic=0;fontFamily=Verdana;fontSize=12;rotation=90;flipH=1;" parent="1" vertex="1">
          <mxGeometry x="132" y="284" width="80" height="85" as="geometry" />
        </mxCell>
        <mxCell id="48ef80bc37b76060-264" value="" style="verticalLabelPosition=bottom;html=1;verticalAlign=top;align=center;strokeWidth=1;shape=mxgraph.floorplan.wall;fillColor=#000000;rounded=0;shadow=0;comic=0;fontFamily=Verdana;fontSize=12;" parent="1" vertex="1">
          <mxGeometry x="217" y="243" width="212" height="10" as="geometry" />
        </mxCell>
        <mxCell id="48ef80bc37b76060-265" value="" style="group;rotation=90;" parent="1" vertex="1" connectable="0">
          <mxGeometry x="240" y="24" width="160" height="140" as="geometry" />
        </mxCell>
        <mxCell id="48ef80bc37b76060-100" value="" style="verticalLabelPosition=bottom;html=1;verticalAlign=top;align=center;strokeWidth=1;shape=mxgraph.floorplan.office_chair;shadow=0;rounded=0;comic=0;fontFamily=Verdana;fontSize=12;rotation=90;" parent="48ef80bc37b76060-265" vertex="1">
          <mxGeometry x="109" y="19" width="40" height="43" as="geometry" />
        </mxCell>
        <mxCell id="48ef80bc37b76060-101" value="" style="verticalLabelPosition=bottom;html=1;verticalAlign=top;align=center;strokeWidth=1;shape=mxgraph.floorplan.office_chair;shadow=0;direction=west;rounded=0;comic=0;fontFamily=Verdana;fontSize=12;rotation=90;" parent="48ef80bc37b76060-265" vertex="1">
          <mxGeometry x="12" y="19" width="40" height="43" as="geometry" />
        </mxCell>
        <mxCell id="48ef80bc37b76060-104" value="" style="verticalLabelPosition=bottom;html=1;verticalAlign=top;align=center;strokeWidth=1;shape=mxgraph.floorplan.office_chair;shadow=0;rounded=0;comic=0;fontFamily=Verdana;fontSize=12;rotation=90;" parent="48ef80bc37b76060-265" vertex="1">
          <mxGeometry x="109" y="79" width="40" height="43" as="geometry" />
        </mxCell>
        <mxCell id="48ef80bc37b76060-105" value="" style="verticalLabelPosition=bottom;html=1;verticalAlign=top;align=center;strokeWidth=1;shape=mxgraph.floorplan.office_chair;shadow=0;direction=west;rounded=0;comic=0;fontFamily=Verdana;fontSize=12;rotation=90;" parent="48ef80bc37b76060-265" vertex="1">
          <mxGeometry x="12" y="79" width="40" height="43" as="geometry" />
        </mxCell>
        <mxCell id="48ef80bc37b76060-106" value="" style="shape=rect;shadow=0;rounded=0;comic=0;fontFamily=Verdana;fontSize=12;align=center;html=1;rotation=90;" parent="48ef80bc37b76060-265" vertex="1">
          <mxGeometry y="20" width="160" height="100" as="geometry" />
        </mxCell>
        <mxCell id="48ef80bc37b76060-64" value="" style="verticalLabelPosition=bottom;html=1;verticalAlign=top;align=center;strokeWidth=1;shape=mxgraph.floorplan.office_chair;shadow=0;rounded=0;comic=0;fontFamily=Verdana;fontSize=12;rotation=180;" parent="1" vertex="1">
          <mxGeometry x="90" y="41" width="40" height="43" as="geometry" />
        </mxCell>
        <mxCell id="48ef80bc37b76060-65" value="" style="shape=rect;shadow=0;rounded=0;comic=0;fontFamily=Verdana;fontSize=12;align=center;html=1;rotation=180;" parent="1" vertex="1">
          <mxGeometry x="18" y="13" width="187" height="50" as="geometry" />
        </mxCell>
        <mxCell id="48ef80bc37b76060-66" value="" style="verticalLabelPosition=bottom;html=1;verticalAlign=top;align=center;strokeWidth=1;shape=mxgraph.floorplan.workstation;shadow=0;flipV=1;rounded=0;comic=0;fontFamily=Verdana;fontSize=12;rotation=180;" parent="1" vertex="1">
          <mxGeometry x="85" y="13" width="50" height="40" as="geometry" />
        </mxCell>
        <mxCell id="48ef80bc37b76060-266" value="" style="verticalLabelPosition=bottom;html=1;verticalAlign=top;align=center;strokeWidth=1;shape=mxgraph.floorplan.flat_tv;rounded=0;shadow=0;comic=0;fontFamily=Verdana;fontSize=12;rotation=-35;" parent="1" vertex="1">
          <mxGeometry x="16" y="34" width="70" height="10" as="geometry" />
        </mxCell>
        <mxCell id="48ef80bc37b76060-267" value="" style="verticalLabelPosition=bottom;html=1;verticalAlign=top;align=center;strokeWidth=1;shape=mxgraph.floorplan.flat_tv;rounded=0;shadow=0;comic=0;fontFamily=Verdana;fontSize=12;rotation=30;" parent="1" vertex="1">
          <mxGeometry x="137" y="35" width="70" height="10" as="geometry" />
        </mxCell>
        <mxCell id="48ef80bc37b76060-273" value="" style="group;rotation=-90;" parent="1" vertex="1" connectable="0">
          <mxGeometry x="-42" y="237" width="191" height="71" as="geometry" />
        </mxCell>
        <mxCell id="48ef80bc37b76060-268" value="" style="verticalLabelPosition=bottom;html=1;verticalAlign=top;align=center;strokeWidth=1;shape=mxgraph.floorplan.office_chair;shadow=0;rounded=0;comic=0;fontFamily=Verdana;fontSize=12;rotation=90;" parent="48ef80bc37b76060-273" vertex="1">
          <mxGeometry x="90" y="16" width="40" height="43" as="geometry" />
        </mxCell>
        <mxCell id="48ef80bc37b76060-269" value="" style="shape=rect;shadow=0;rounded=0;comic=0;fontFamily=Verdana;fontSize=12;align=center;html=1;rotation=90;" parent="48ef80bc37b76060-273" vertex="1">
          <mxGeometry x="-8" y="11" width="187" height="50" as="geometry" />
        </mxCell>
        <mxCell id="48ef80bc37b76060-270" value="" style="verticalLabelPosition=bottom;html=1;verticalAlign=top;align=center;strokeWidth=1;shape=mxgraph.floorplan.workstation;shadow=0;flipV=1;rounded=0;comic=0;fontFamily=Verdana;fontSize=12;rotation=90;" parent="48ef80bc37b76060-273" vertex="1">
          <mxGeometry x="55" y="17" width="50" height="40" as="geometry" />
        </mxCell>
        <mxCell id="48ef80bc37b76060-271" value="" style="verticalLabelPosition=bottom;html=1;verticalAlign=top;align=center;strokeWidth=1;shape=mxgraph.floorplan.flat_tv;rounded=0;shadow=0;comic=0;fontFamily=Verdana;fontSize=12;rotation=-125;" parent="48ef80bc37b76060-273" vertex="1">
          <mxGeometry x="51" y="91" width="70" height="10" as="geometry" />
        </mxCell>
        <mxCell id="48ef80bc37b76060-272" value="" style="verticalLabelPosition=bottom;html=1;verticalAlign=top;align=center;strokeWidth=1;shape=mxgraph.floorplan.flat_tv;rounded=0;shadow=0;comic=0;fontFamily=Verdana;fontSize=12;rotation=-60;" parent="48ef80bc37b76060-273" vertex="1">
          <mxGeometry x="52" y="-30" width="70" height="10" as="geometry" />
        </mxCell>
        <mxCell id="48ef80bc37b76060-274" value="" style="verticalLabelPosition=bottom;html=1;verticalAlign=top;align=center;strokeWidth=1;shape=mxgraph.floorplan.plant;rounded=0;shadow=0;comic=0;fontFamily=Verdana;fontSize=12;" parent="1" vertex="1">
          <mxGeometry x="19" y="105" width="47" height="51" as="geometry" />
        </mxCell>
        <mxCell id="48ef80bc37b76060-275" value="" style="verticalLabelPosition=bottom;html=1;verticalAlign=top;align=center;strokeWidth=1;shape=mxgraph.floorplan.dresser;rounded=0;shadow=0;comic=0;fontFamily=Verdana;fontSize=12;rotation=90;" parent="1" vertex="1">
          <mxGeometry x="123" y="139" width="100" height="65" as="geometry" />
        </mxCell>
        <mxCell id="48ef80bc37b76060-276" value="" style="group;rotation=90;" parent="1" vertex="1" connectable="0">
          <mxGeometry x="629" y="24" width="160" height="140" as="geometry" />
        </mxCell>
        <mxCell id="48ef80bc37b76060-107" value="" style="verticalLabelPosition=bottom;html=1;verticalAlign=top;align=center;strokeWidth=1;shape=mxgraph.floorplan.office_chair;shadow=0;rounded=0;comic=0;fontFamily=Verdana;fontSize=12;rotation=90;" parent="48ef80bc37b76060-276" vertex="1">
          <mxGeometry x="109" y="19" width="40" height="43" as="geometry" />
        </mxCell>
        <mxCell id="48ef80bc37b76060-108" value="" style="verticalLabelPosition=bottom;html=1;verticalAlign=top;align=center;strokeWidth=1;shape=mxgraph.floorplan.office_chair;shadow=0;direction=west;rounded=0;comic=0;fontFamily=Verdana;fontSize=12;rotation=90;" parent="48ef80bc37b76060-276" vertex="1">
          <mxGeometry x="12" y="19" width="40" height="43" as="geometry" />
        </mxCell>
        <mxCell id="48ef80bc37b76060-111" value="" style="verticalLabelPosition=bottom;html=1;verticalAlign=top;align=center;strokeWidth=1;shape=mxgraph.floorplan.office_chair;shadow=0;rounded=0;comic=0;fontFamily=Verdana;fontSize=12;rotation=90;" parent="48ef80bc37b76060-276" vertex="1">
          <mxGeometry x="109" y="79" width="40" height="43" as="geometry" />
        </mxCell>
        <mxCell id="48ef80bc37b76060-112" value="" style="verticalLabelPosition=bottom;html=1;verticalAlign=top;align=center;strokeWidth=1;shape=mxgraph.floorplan.office_chair;shadow=0;direction=west;rounded=0;comic=0;fontFamily=Verdana;fontSize=12;rotation=90;" parent="48ef80bc37b76060-276" vertex="1">
          <mxGeometry x="12" y="79" width="40" height="43" as="geometry" />
        </mxCell>
        <mxCell id="48ef80bc37b76060-113" value="" style="shape=rect;shadow=0;rounded=0;comic=0;fontFamily=Verdana;fontSize=12;align=center;html=1;rotation=90;" parent="48ef80bc37b76060-276" vertex="1">
          <mxGeometry y="20" width="160" height="100" as="geometry" />
        </mxCell>
        <mxCell id="48ef80bc37b76060-277" value="" style="verticalLabelPosition=bottom;html=1;verticalAlign=top;align=center;strokeWidth=1;shape=mxgraph.floorplan.doorDouble;rounded=0;shadow=0;comic=0;fontFamily=Verdana;fontSize=12;flipV=1;" parent="1" vertex="1">
          <mxGeometry x="430" y="165" width="160" height="85" as="geometry" />
        </mxCell>
        <mxCell id="48ef80bc37b76060-252" value="" style="verticalLabelPosition=bottom;html=1;verticalAlign=top;align=center;strokeWidth=1;shape=mxgraph.floorplan.office_chair;shadow=0;rounded=0;comic=0;fontFamily=Verdana;fontSize=12;rotation=-90;" parent="1" vertex="1">
          <mxGeometry x="2388" y="118" width="40" height="43" as="geometry" />
        </mxCell>
        <mxCell id="48ef80bc37b76060-253" value="" style="shape=rect;shadow=0;rounded=0;comic=0;fontFamily=Verdana;fontSize=12;align=center;html=1;rotation=-90;" parent="1" vertex="1">
          <mxGeometry x="2364" y="120" width="135" height="50" as="geometry" />
        </mxCell>
        <mxCell id="48ef80bc37b76060-254" value="" style="verticalLabelPosition=bottom;html=1;verticalAlign=top;align=center;strokeWidth=1;shape=mxgraph.floorplan.workstation;shadow=0;flipV=1;rounded=0;comic=0;fontFamily=Verdana;fontSize=12;rotation=-90;" parent="1" vertex="1">
          <mxGeometry x="2411" y="119" width="50" height="40" as="geometry" />
        </mxCell>
        <mxCell id="48ef80bc37b76060-278" value="" style="verticalLabelPosition=bottom;html=1;verticalAlign=top;align=center;strokeWidth=1;shape=mxgraph.floorplan.plant;rounded=0;shadow=0;comic=0;fontFamily=Verdana;fontSize=12;" parent="1" vertex="1">
          <mxGeometry x="2405" y="16" width="47" height="51" as="geometry" />
        </mxCell>
        <mxCell id="48ef80bc37b76060-279" value="" style="verticalLabelPosition=bottom;html=1;verticalAlign=top;align=center;strokeWidth=1;shape=mxgraph.floorplan.wall;fillColor=#000000;rounded=0;shadow=0;comic=0;fontFamily=Verdana;fontSize=12;" parent="1" vertex="1">
          <mxGeometry x="2027" y="243" width="230" height="10" as="geometry" />
        </mxCell>
        <mxCell id="48ef80bc37b76060-280" value="" style="verticalLabelPosition=bottom;html=1;verticalAlign=top;align=center;strokeWidth=1;shape=mxgraph.floorplan.office_chair;shadow=0;rounded=0;comic=0;fontFamily=Verdana;fontSize=12;" parent="1" vertex="1">
          <mxGeometry x="2139" y="57" width="40" height="43" as="geometry" />
        </mxCell>
        <mxCell id="48ef80bc37b76060-281" value="" style="verticalLabelPosition=bottom;html=1;verticalAlign=top;align=center;strokeWidth=1;shape=mxgraph.floorplan.office_chair;shadow=0;direction=west;rounded=0;comic=0;fontFamily=Verdana;fontSize=12;" parent="1" vertex="1">
          <mxGeometry x="2139" y="154" width="40" height="43" as="geometry" />
        </mxCell>
        <mxCell id="48ef80bc37b76060-282" value="" style="verticalLabelPosition=bottom;html=1;verticalAlign=top;align=center;strokeWidth=1;shape=mxgraph.floorplan.office_chair;shadow=0;direction=north;rounded=0;comic=0;fontFamily=Verdana;fontSize=12;" parent="1" vertex="1">
          <mxGeometry x="2089" y="107" width="43" height="40" as="geometry" />
        </mxCell>
        <mxCell id="48ef80bc37b76060-283" value="" style="verticalLabelPosition=bottom;html=1;verticalAlign=top;align=center;strokeWidth=1;shape=mxgraph.floorplan.office_chair;shadow=0;direction=south;rounded=0;comic=0;fontFamily=Verdana;fontSize=12;" parent="1" vertex="1">
          <mxGeometry x="2186" y="107" width="43" height="40" as="geometry" />
        </mxCell>
        <mxCell id="48ef80bc37b76060-284" value="" style="shape=rect;shadow=0;rounded=0;comic=0;fontFamily=Verdana;fontSize=12;align=center;html=1;" parent="1" vertex="1">
          <mxGeometry x="2109" y="77" width="100" height="100" as="geometry" />
        </mxCell>
        <mxCell id="48ef80bc37b76060-285" value="" style="verticalLabelPosition=bottom;html=1;verticalAlign=top;align=center;strokeWidth=1;shape=mxgraph.floorplan.wall;fillColor=#000000;direction=south;rounded=0;shadow=0;comic=0;fontFamily=Verdana;fontSize=12;" parent="1" vertex="1">
          <mxGeometry x="1932" y="3" width="10" height="248" as="geometry" />
        </mxCell>
        <mxCell id="48ef80bc37b76060-286" value="" style="verticalLabelPosition=bottom;html=1;verticalAlign=top;align=center;strokeWidth=1;shape=mxgraph.floorplan.plant;rounded=0;shadow=0;comic=0;fontFamily=Verdana;fontSize=12;" parent="1" vertex="1">
          <mxGeometry x="2030" y="18" width="47" height="51" as="geometry" />
        </mxCell>
        <mxCell id="48ef80bc37b76060-287" value="" style="verticalLabelPosition=bottom;html=1;verticalAlign=top;align=center;strokeWidth=1;shape=mxgraph.floorplan.doorLeft;rounded=0;shadow=0;comic=0;fontFamily=Verdana;fontSize=12;flipV=1;" parent="1" vertex="1">
          <mxGeometry x="1947" y="165" width="80" height="85" as="geometry" />
        </mxCell>
        <mxCell id="48ef80bc37b76060-288" value="" style="verticalLabelPosition=bottom;html=1;verticalAlign=top;align=center;strokeWidth=1;shape=mxgraph.floorplan.wall;fillColor=#000000;rounded=0;shadow=0;comic=0;fontFamily=Verdana;fontSize=12;" parent="1" vertex="1">
          <mxGeometry x="1927" y="243" width="20" height="10" as="geometry" />
        </mxCell>
        <mxCell id="48ef80bc37b76060-289" value="" style="verticalLabelPosition=bottom;html=1;verticalAlign=top;align=center;strokeWidth=1;shape=mxgraph.floorplan.doorRight;rounded=0;shadow=0;comic=0;fontFamily=Verdana;fontSize=12;flipV=1;" parent="1" vertex="1">
          <mxGeometry x="1847" y="165" width="80" height="85" as="geometry" />
        </mxCell>
        <mxCell id="48ef80bc37b76060-290" value="" style="verticalLabelPosition=bottom;html=1;verticalAlign=top;align=center;strokeWidth=1;shape=mxgraph.floorplan.wall;fillColor=#000000;rounded=0;shadow=0;comic=0;fontFamily=Verdana;fontSize=12;" parent="1" vertex="1">
          <mxGeometry x="1707" y="243" width="140" height="10" as="geometry" />
        </mxCell>
        <mxCell id="48ef80bc37b76060-291" value="" style="verticalLabelPosition=bottom;html=1;verticalAlign=top;align=center;strokeWidth=1;shape=mxgraph.floorplan.wall;fillColor=#000000;direction=south;rounded=0;shadow=0;comic=0;fontFamily=Verdana;fontSize=12;" parent="1" vertex="1">
          <mxGeometry x="1712" y="7" width="10" height="244" as="geometry" />
        </mxCell>
        <mxCell id="48ef80bc37b76060-292" value="" style="group;rotation=90;" parent="1" vertex="1" connectable="0">
          <mxGeometry x="1718" y="33" width="80" height="70" as="geometry" />
        </mxCell>
        <mxCell id="48ef80bc37b76060-293" value="" style="verticalLabelPosition=bottom;html=1;verticalAlign=top;align=center;strokeWidth=1;shape=mxgraph.floorplan.office_chair;shadow=0;rounded=0;comic=0;fontFamily=Verdana;fontSize=12;rotation=90;" parent="48ef80bc37b76060-292" vertex="1">
          <mxGeometry x="35" y="14" width="40" height="43" as="geometry" />
        </mxCell>
        <mxCell id="48ef80bc37b76060-294" value="" style="shape=rect;shadow=0;rounded=0;comic=0;fontFamily=Verdana;fontSize=12;align=center;html=1;rotation=90;" parent="48ef80bc37b76060-292" vertex="1">
          <mxGeometry x="-10" y="10" width="80" height="50" as="geometry" />
        </mxCell>
        <mxCell id="48ef80bc37b76060-295" value="" style="verticalLabelPosition=bottom;html=1;verticalAlign=top;align=center;strokeWidth=1;shape=mxgraph.floorplan.workstation;shadow=0;flipV=1;rounded=0;comic=0;fontFamily=Verdana;fontSize=12;rotation=90;" parent="48ef80bc37b76060-292" vertex="1">
          <mxGeometry y="15" width="50" height="40" as="geometry" />
        </mxCell>
        <mxCell id="48ef80bc37b76060-296" value="" style="verticalLabelPosition=bottom;html=1;verticalAlign=top;align=center;strokeWidth=1;shape=mxgraph.floorplan.dresser;rounded=0;shadow=0;comic=0;fontFamily=Verdana;fontSize=12;rotation=-90;" parent="1" vertex="1">
          <mxGeometry x="1705" y="160" width="100" height="65" as="geometry" />
        </mxCell>
        <mxCell id="48ef80bc37b76060-297" value="" style="verticalLabelPosition=bottom;html=1;verticalAlign=top;align=center;strokeWidth=1;shape=mxgraph.floorplan.plant;rounded=0;shadow=0;comic=0;fontFamily=Verdana;fontSize=12;" parent="1" vertex="1">
          <mxGeometry x="1875" y="20" width="47" height="51" as="geometry" />
        </mxCell>
        <mxCell id="48ef80bc37b76060-298" value="" style="verticalLabelPosition=bottom;html=1;verticalAlign=top;align=center;strokeWidth=1;shape=mxgraph.floorplan.doorRight;rounded=0;shadow=0;comic=0;fontFamily=Verdana;fontSize=12;flipV=1;" parent="1" vertex="1">
          <mxGeometry x="1627" y="165" width="80" height="85" as="geometry" />
        </mxCell>
        <mxCell id="48ef80bc37b76060-299" value="" style="verticalLabelPosition=bottom;html=1;verticalAlign=top;align=center;strokeWidth=1;shape=mxgraph.floorplan.wall;fillColor=#000000;rounded=0;shadow=0;comic=0;fontFamily=Verdana;fontSize=12;" parent="1" vertex="1">
          <mxGeometry x="1487" y="243" width="140" height="10" as="geometry" />
        </mxCell>
        <mxCell id="48ef80bc37b76060-300" value="" style="verticalLabelPosition=bottom;html=1;verticalAlign=top;align=center;strokeWidth=1;shape=mxgraph.floorplan.wall;fillColor=#000000;direction=south;rounded=0;shadow=0;comic=0;fontFamily=Verdana;fontSize=12;" parent="1" vertex="1">
          <mxGeometry x="1492" y="7" width="10" height="244" as="geometry" />
        </mxCell>
        <mxCell id="48ef80bc37b76060-301" value="" style="group;rotation=90;" parent="1" vertex="1" connectable="0">
          <mxGeometry x="1498" y="33" width="80" height="70" as="geometry" />
        </mxCell>
        <mxCell id="48ef80bc37b76060-302" value="" style="verticalLabelPosition=bottom;html=1;verticalAlign=top;align=center;strokeWidth=1;shape=mxgraph.floorplan.office_chair;shadow=0;rounded=0;comic=0;fontFamily=Verdana;fontSize=12;rotation=90;" parent="48ef80bc37b76060-301" vertex="1">
          <mxGeometry x="35" y="14" width="40" height="43" as="geometry" />
        </mxCell>
        <mxCell id="48ef80bc37b76060-303" value="" style="shape=rect;shadow=0;rounded=0;comic=0;fontFamily=Verdana;fontSize=12;align=center;html=1;rotation=90;" parent="48ef80bc37b76060-301" vertex="1">
          <mxGeometry x="-10" y="10" width="80" height="50" as="geometry" />
        </mxCell>
        <mxCell id="48ef80bc37b76060-304" value="" style="verticalLabelPosition=bottom;html=1;verticalAlign=top;align=center;strokeWidth=1;shape=mxgraph.floorplan.workstation;shadow=0;flipV=1;rounded=0;comic=0;fontFamily=Verdana;fontSize=12;rotation=90;" parent="48ef80bc37b76060-301" vertex="1">
          <mxGeometry y="15" width="50" height="40" as="geometry" />
        </mxCell>
        <mxCell id="48ef80bc37b76060-305" value="" style="verticalLabelPosition=bottom;html=1;verticalAlign=top;align=center;strokeWidth=1;shape=mxgraph.floorplan.dresser;rounded=0;shadow=0;comic=0;fontFamily=Verdana;fontSize=12;rotation=-90;" parent="1" vertex="1">
          <mxGeometry x="1485" y="160" width="100" height="65" as="geometry" />
        </mxCell>
        <mxCell id="48ef80bc37b76060-306" value="" style="verticalLabelPosition=bottom;html=1;verticalAlign=top;align=center;strokeWidth=1;shape=mxgraph.floorplan.plant;rounded=0;shadow=0;comic=0;fontFamily=Verdana;fontSize=12;" parent="1" vertex="1">
          <mxGeometry x="1655" y="20" width="47" height="51" as="geometry" />
        </mxCell>
        <mxCell id="48ef80bc37b76060-307" value="" style="verticalLabelPosition=bottom;html=1;verticalAlign=top;align=center;strokeWidth=1;shape=mxgraph.floorplan.doorRight;rounded=0;shadow=0;comic=0;fillColor=#FFFFFF;fontFamily=Verdana;fontSize=12;flipV=1;" parent="1" vertex="1">
          <mxGeometry x="1407" y="165" width="80" height="85" as="geometry" />
        </mxCell>
        <mxCell id="48ef80bc37b76060-308" value="" style="verticalLabelPosition=bottom;html=1;verticalAlign=top;align=center;strokeWidth=1;shape=mxgraph.floorplan.wall;fillColor=#000000;rounded=0;shadow=0;comic=0;fontFamily=Verdana;fontSize=12;" parent="1" vertex="1">
          <mxGeometry x="1267" y="243" width="140" height="10" as="geometry" />
        </mxCell>
        <mxCell id="48ef80bc37b76060-309" value="" style="verticalLabelPosition=bottom;html=1;verticalAlign=top;align=center;strokeWidth=1;shape=mxgraph.floorplan.wall;fillColor=#000000;direction=south;rounded=0;shadow=0;comic=0;fontFamily=Verdana;fontSize=12;" parent="1" vertex="1">
          <mxGeometry x="1272" y="7" width="10" height="244" as="geometry" />
        </mxCell>
        <mxCell id="48ef80bc37b76060-310" value="" style="group;rotation=90;" parent="1" vertex="1" connectable="0">
          <mxGeometry x="1278" y="33" width="80" height="70" as="geometry" />
        </mxCell>
        <mxCell id="48ef80bc37b76060-311" value="" style="verticalLabelPosition=bottom;html=1;verticalAlign=top;align=center;strokeWidth=1;shape=mxgraph.floorplan.office_chair;shadow=0;rounded=0;comic=0;fontFamily=Verdana;fontSize=12;rotation=90;" parent="48ef80bc37b76060-310" vertex="1">
          <mxGeometry x="35" y="14" width="40" height="43" as="geometry" />
        </mxCell>
        <mxCell id="48ef80bc37b76060-312" value="" style="shape=rect;shadow=0;rounded=0;comic=0;fontFamily=Verdana;fontSize=12;align=center;html=1;rotation=90;" parent="48ef80bc37b76060-310" vertex="1">
          <mxGeometry x="-10" y="10" width="80" height="50" as="geometry" />
        </mxCell>
        <mxCell id="48ef80bc37b76060-313" value="" style="verticalLabelPosition=bottom;html=1;verticalAlign=top;align=center;strokeWidth=1;shape=mxgraph.floorplan.workstation;shadow=0;flipV=1;rounded=0;comic=0;fontFamily=Verdana;fontSize=12;rotation=90;" parent="48ef80bc37b76060-310" vertex="1">
          <mxGeometry y="15" width="50" height="40" as="geometry" />
        </mxCell>
        <mxCell id="48ef80bc37b76060-314" value="" style="verticalLabelPosition=bottom;html=1;verticalAlign=top;align=center;strokeWidth=1;shape=mxgraph.floorplan.dresser;rounded=0;shadow=0;comic=0;fillColor=#FFFFFF;fontFamily=Verdana;fontSize=12;rotation=-90;" parent="1" vertex="1">
          <mxGeometry x="1265" y="160" width="100" height="65" as="geometry" />
        </mxCell>
        <mxCell id="48ef80bc37b76060-315" value="" style="verticalLabelPosition=bottom;html=1;verticalAlign=top;align=center;strokeWidth=1;shape=mxgraph.floorplan.plant;rounded=0;shadow=0;comic=0;fontFamily=Verdana;fontSize=12;" parent="1" vertex="1">
          <mxGeometry x="1435" y="20" width="47" height="51" as="geometry" />
        </mxCell>
        <mxCell id="48ef80bc37b76060-316" value="" style="verticalLabelPosition=bottom;html=1;verticalAlign=top;align=center;strokeWidth=1;shape=mxgraph.floorplan.doorRight;rounded=0;shadow=0;comic=0;fontFamily=Verdana;fontSize=12;flipV=1;" parent="1" vertex="1">
          <mxGeometry x="1187" y="165" width="80" height="85" as="geometry" />
        </mxCell>
        <mxCell id="48ef80bc37b76060-317" value="" style="verticalLabelPosition=bottom;html=1;verticalAlign=top;align=center;strokeWidth=1;shape=mxgraph.floorplan.wall;fillColor=#000000;rounded=0;shadow=0;comic=0;fontFamily=Verdana;fontSize=12;" parent="1" vertex="1">
          <mxGeometry x="1047" y="243" width="140" height="10" as="geometry" />
        </mxCell>
        <mxCell id="48ef80bc37b76060-318" value="" style="verticalLabelPosition=bottom;html=1;verticalAlign=top;align=center;strokeWidth=1;shape=mxgraph.floorplan.wall;fillColor=#000000;direction=south;rounded=0;shadow=0;comic=0;fontFamily=Verdana;fontSize=12;" parent="1" vertex="1">
          <mxGeometry x="1052" y="7" width="10" height="244" as="geometry" />
        </mxCell>
        <mxCell id="48ef80bc37b76060-319" value="" style="group;rotation=90;" parent="1" vertex="1" connectable="0">
          <mxGeometry x="1058" y="33" width="80" height="70" as="geometry" />
        </mxCell>
        <mxCell id="48ef80bc37b76060-320" value="" style="verticalLabelPosition=bottom;html=1;verticalAlign=top;align=center;strokeWidth=1;shape=mxgraph.floorplan.office_chair;shadow=0;rounded=0;comic=0;fontFamily=Verdana;fontSize=12;rotation=90;" parent="48ef80bc37b76060-319" vertex="1">
          <mxGeometry x="35" y="14" width="40" height="43" as="geometry" />
        </mxCell>
        <mxCell id="48ef80bc37b76060-321" value="" style="shape=rect;shadow=0;rounded=0;comic=0;fontFamily=Verdana;fontSize=12;align=center;html=1;rotation=90;" parent="48ef80bc37b76060-319" vertex="1">
          <mxGeometry x="-10" y="10" width="80" height="50" as="geometry" />
        </mxCell>
        <mxCell id="48ef80bc37b76060-322" value="" style="verticalLabelPosition=bottom;html=1;verticalAlign=top;align=center;strokeWidth=1;shape=mxgraph.floorplan.workstation;shadow=0;flipV=1;rounded=0;comic=0;fontFamily=Verdana;fontSize=12;rotation=90;" parent="48ef80bc37b76060-319" vertex="1">
          <mxGeometry y="15" width="50" height="40" as="geometry" />
        </mxCell>
        <mxCell id="48ef80bc37b76060-323" value="" style="verticalLabelPosition=bottom;html=1;verticalAlign=top;align=center;strokeWidth=1;shape=mxgraph.floorplan.dresser;rounded=0;shadow=0;comic=0;fontFamily=Verdana;fontSize=12;rotation=-90;" parent="1" vertex="1">
          <mxGeometry x="1045" y="160" width="100" height="65" as="geometry" />
        </mxCell>
        <mxCell id="48ef80bc37b76060-324" value="" style="verticalLabelPosition=bottom;html=1;verticalAlign=top;align=center;strokeWidth=1;shape=mxgraph.floorplan.plant;rounded=0;shadow=0;comic=0;fontFamily=Verdana;fontSize=12;" parent="1" vertex="1">
          <mxGeometry x="1215" y="20" width="47" height="51" as="geometry" />
        </mxCell>
        <mxCell id="48ef80bc37b76060-325" value="" style="verticalLabelPosition=bottom;html=1;verticalAlign=top;align=center;strokeWidth=1;shape=mxgraph.floorplan.doorRight;rounded=0;shadow=0;comic=0;fontFamily=Verdana;fontSize=12;flipV=1;" parent="1" vertex="1">
          <mxGeometry x="966" y="165" width="80" height="85" as="geometry" />
        </mxCell>
        <mxCell id="48ef80bc37b76060-326" value="" style="verticalLabelPosition=bottom;html=1;verticalAlign=top;align=center;strokeWidth=1;shape=mxgraph.floorplan.wall;fillColor=#000000;rounded=0;shadow=0;comic=0;fontFamily=Verdana;fontSize=12;" parent="1" vertex="1">
          <mxGeometry x="590" y="243" width="375" height="10" as="geometry" />
        </mxCell>
        <mxCell id="48ef80bc37b76060-327" value="" style="verticalLabelPosition=bottom;html=1;verticalAlign=top;align=center;strokeWidth=1;shape=mxgraph.floorplan.wall;fillColor=#000000;direction=south;rounded=0;shadow=0;comic=0;fontFamily=Verdana;fontSize=12;" parent="1" vertex="1">
          <mxGeometry x="831" y="7" width="10" height="244" as="geometry" />
        </mxCell>
        <mxCell id="48ef80bc37b76060-328" value="" style="group;rotation=90;" parent="1" vertex="1" connectable="0">
          <mxGeometry x="837" y="33" width="80" height="70" as="geometry" />
        </mxCell>
        <mxCell id="48ef80bc37b76060-329" value="" style="verticalLabelPosition=bottom;html=1;verticalAlign=top;align=center;strokeWidth=1;shape=mxgraph.floorplan.office_chair;shadow=0;rounded=0;comic=0;fontFamily=Verdana;fontSize=12;rotation=90;" parent="48ef80bc37b76060-328" vertex="1">
          <mxGeometry x="35" y="14" width="40" height="43" as="geometry" />
        </mxCell>
        <mxCell id="48ef80bc37b76060-330" value="" style="shape=rect;shadow=0;rounded=0;comic=0;fontFamily=Verdana;fontSize=12;align=center;html=1;rotation=90;" parent="48ef80bc37b76060-328" vertex="1">
          <mxGeometry x="-10" y="10" width="80" height="50" as="geometry" />
        </mxCell>
        <mxCell id="48ef80bc37b76060-331" value="" style="verticalLabelPosition=bottom;html=1;verticalAlign=top;align=center;strokeWidth=1;shape=mxgraph.floorplan.workstation;shadow=0;flipV=1;rounded=0;comic=0;fontFamily=Verdana;fontSize=12;rotation=90;" parent="48ef80bc37b76060-328" vertex="1">
          <mxGeometry y="15" width="50" height="40" as="geometry" />
        </mxCell>
        <mxCell id="48ef80bc37b76060-332" value="" style="verticalLabelPosition=bottom;html=1;verticalAlign=top;align=center;strokeWidth=1;shape=mxgraph.floorplan.dresser;rounded=0;shadow=0;comic=0;fontFamily=Verdana;fontSize=12;rotation=-90;" parent="1" vertex="1">
          <mxGeometry x="824" y="160" width="100" height="65" as="geometry" />
        </mxCell>
        <mxCell id="48ef80bc37b76060-333" value="" style="verticalLabelPosition=bottom;html=1;verticalAlign=top;align=center;strokeWidth=1;shape=mxgraph.floorplan.plant;rounded=0;shadow=0;comic=0;fontFamily=Verdana;fontSize=12;" parent="1" vertex="1">
          <mxGeometry x="994" y="20" width="47" height="51" as="geometry" />
        </mxCell>
        <mxCell id="48ef80bc37b76060-337" value="" style="verticalLabelPosition=bottom;html=1;verticalAlign=top;align=center;strokeWidth=1;shape=mxgraph.floorplan.wall;fillColor=#000000;rounded=0;shadow=0;comic=0;fontFamily=Verdana;fontSize=12;" parent="1" vertex="1">
          <mxGeometry x="467" y="625" width="340" height="10" as="geometry" />
        </mxCell>
        <mxCell id="48ef80bc37b76060-338" value="" style="verticalLabelPosition=bottom;html=1;verticalAlign=top;align=center;strokeWidth=1;shape=mxgraph.floorplan.wall;fillColor=#000000;direction=south;rounded=0;shadow=0;comic=0;fontFamily=Verdana;fontSize=12;" parent="1" vertex="1">
          <mxGeometry x="467" y="389" width="10" height="150" as="geometry" />
        </mxCell>
        <mxCell id="48ef80bc37b76060-339" value="" style="verticalLabelPosition=bottom;html=1;verticalAlign=top;align=center;strokeWidth=1;shape=mxgraph.floorplan.wall;fillColor=#000000;direction=south;rounded=0;shadow=0;comic=0;fontFamily=Verdana;fontSize=12;" parent="1" vertex="1">
          <mxGeometry x="467" y="721" width="10" height="149" as="geometry" />
        </mxCell>
        <mxCell id="48ef80bc37b76060-340" value="" style="verticalLabelPosition=bottom;html=1;verticalAlign=top;align=center;strokeWidth=1;shape=mxgraph.floorplan.wall;fillColor=#000000;direction=south;rounded=0;shadow=0;comic=0;fontFamily=Verdana;fontSize=12;" parent="1" vertex="1">
          <mxGeometry x="467" y="620" width="10" height="20" as="geometry" />
        </mxCell>
        <mxCell id="48ef80bc37b76060-341" value="" style="verticalLabelPosition=bottom;html=1;verticalAlign=top;align=center;strokeWidth=1;shape=mxgraph.floorplan.doorLeft;rounded=0;shadow=0;comic=0;fontFamily=Verdana;fontSize=12;rotation=-90;" parent="1" vertex="1">
          <mxGeometry x="472" y="537" width="80" height="85" as="geometry" />
        </mxCell>
        <mxCell id="48ef80bc37b76060-342" value="" style="verticalLabelPosition=bottom;html=1;verticalAlign=top;align=center;strokeWidth=1;shape=mxgraph.floorplan.doorRight;rounded=0;shadow=0;comic=0;fontFamily=Verdana;fontSize=12;rotation=-90;" parent="1" vertex="1">
          <mxGeometry x="472" y="638" width="80" height="85" as="geometry" />
        </mxCell>
        <mxCell id="48ef80bc37b76060-343" value="" style="verticalLabelPosition=bottom;html=1;verticalAlign=top;align=center;strokeWidth=1;shape=mxgraph.floorplan.toilet;rounded=0;shadow=0;comic=0;fontFamily=Verdana;fontSize=12;rotation=-90;" parent="1" vertex="1">
          <mxGeometry x="1001" y="414" width="50" height="67" as="geometry" />
        </mxCell>
        <mxCell id="48ef80bc37b76060-344" value="" style="verticalLabelPosition=bottom;html=1;verticalAlign=top;align=center;strokeWidth=1;shape=mxgraph.floorplan.wall;fillColor=#000000;direction=south;rounded=0;shadow=0;comic=0;fontFamily=Verdana;fontSize=12;" parent="1" vertex="1">
          <mxGeometry x="984" y="398" width="10" height="399" as="geometry" />
        </mxCell>
        <mxCell id="48ef80bc37b76060-345" value="" style="verticalLabelPosition=bottom;html=1;verticalAlign=top;align=center;strokeWidth=1;shape=mxgraph.floorplan.toilet;rounded=0;shadow=0;comic=0;fontFamily=Verdana;fontSize=12;rotation=-90;" parent="1" vertex="1">
          <mxGeometry x="1003" y="512" width="50" height="67" as="geometry" />
        </mxCell>
        <mxCell id="48ef80bc37b76060-346" value="" style="verticalLabelPosition=bottom;html=1;verticalAlign=top;align=center;strokeWidth=1;shape=mxgraph.floorplan.wall;fillColor=#000000;rounded=0;shadow=0;comic=0;fontFamily=Verdana;fontSize=12;" parent="1" vertex="1">
          <mxGeometry x="994" y="491" width="172" height="10" as="geometry" />
        </mxCell>
        <mxCell id="48ef80bc37b76060-348" value="" style="verticalLabelPosition=bottom;html=1;verticalAlign=top;align=center;strokeWidth=1;shape=mxgraph.floorplan.doorLeft;rounded=0;shadow=0;comic=0;fillColor=#FFFFFF;fontFamily=Verdana;fontSize=12;rotation=90;" parent="1" vertex="1">
          <mxGeometry x="1092" y="404" width="80" height="85" as="geometry" />
        </mxCell>
        <mxCell id="48ef80bc37b76060-349" value="" style="verticalLabelPosition=bottom;html=1;verticalAlign=top;align=center;strokeWidth=1;shape=mxgraph.floorplan.doorLeft;rounded=0;shadow=0;comic=0;fillColor=#FFFFFF;fontFamily=Verdana;fontSize=12;rotation=90;" parent="1" vertex="1">
          <mxGeometry x="1092" y="503" width="80" height="85" as="geometry" />
        </mxCell>
        <mxCell id="48ef80bc37b76060-350" value="" style="verticalLabelPosition=bottom;html=1;verticalAlign=top;align=center;strokeWidth=1;shape=mxgraph.floorplan.wallCorner;fillColor=#000000;direction=west;rounded=0;shadow=0;comic=0;fontFamily=Verdana;fontSize=12;" parent="1" vertex="1">
          <mxGeometry x="987" y="586" width="323" height="14" as="geometry" />
        </mxCell>
        <mxCell id="48ef80bc37b76060-351" value="" style="verticalLabelPosition=bottom;html=1;verticalAlign=top;align=center;strokeWidth=1;shape=mxgraph.floorplan.wall;fillColor=#000000;direction=south;rounded=0;shadow=0;comic=0;fontFamily=Verdana;fontSize=12;" parent="1" vertex="1">
          <mxGeometry x="1166" y="487" width="10" height="18" as="geometry" />
        </mxCell>
        <mxCell id="48ef80bc37b76060-352" value="" style="verticalLabelPosition=bottom;html=1;verticalAlign=top;align=center;strokeWidth=1;shape=mxgraph.floorplan.wall;fillColor=#000000;direction=south;rounded=0;shadow=0;comic=0;fontFamily=Verdana;fontSize=12;" parent="1" vertex="1">
          <mxGeometry x="1166" y="397" width="10" height="9" as="geometry" />
        </mxCell>
        <mxCell id="48ef80bc37b76060-354" value="" style="verticalLabelPosition=bottom;html=1;verticalAlign=top;align=center;strokeWidth=1;shape=mxgraph.floorplan.sink_2;rounded=0;shadow=0;comic=0;fontFamily=Verdana;fontSize=12;rotation=90;" parent="1" vertex="1">
          <mxGeometry x="1262" y="409" width="40" height="35" as="geometry" />
        </mxCell>
        <mxCell id="48ef80bc37b76060-355" value="" style="verticalLabelPosition=bottom;html=1;verticalAlign=top;align=center;strokeWidth=1;shape=mxgraph.floorplan.sink_2;rounded=0;shadow=0;comic=0;fontFamily=Verdana;fontSize=12;rotation=90;" parent="1" vertex="1">
          <mxGeometry x="1262" y="453" width="40" height="35" as="geometry" />
        </mxCell>
        <mxCell id="48ef80bc37b76060-358" value="" style="verticalLabelPosition=bottom;html=1;verticalAlign=top;align=center;strokeWidth=1;shape=mxgraph.floorplan.doorRight;rounded=0;shadow=0;comic=0;fontFamily=Verdana;fontSize=12;rotation=90;" parent="1" vertex="1">
          <mxGeometry x="1225" y="503" width="80" height="85" as="geometry" />
        </mxCell>
        <mxCell id="48ef80bc37b76060-359" value="" style="verticalLabelPosition=bottom;html=1;verticalAlign=top;align=center;strokeWidth=1;shape=mxgraph.floorplan.wallCorner;fillColor=#000000;direction=south;rounded=0;shadow=0;comic=0;fontFamily=Verdana;fontSize=12;" parent="1" vertex="1">
          <mxGeometry x="984" y="391" width="326" height="114" as="geometry" />
        </mxCell>
        <mxCell id="48ef80bc37b76060-360" value="" style="verticalLabelPosition=bottom;html=1;verticalAlign=top;align=center;strokeWidth=1;shape=mxgraph.floorplan.doorLeft;rounded=0;shadow=0;comic=0;fillColor=#FFFFFF;fontFamily=Verdana;fontSize=12;rotation=90;" parent="1" vertex="1">
          <mxGeometry x="1091" y="600" width="80" height="85" as="geometry" />
        </mxCell>
        <mxCell id="48ef80bc37b76060-361" value="" style="verticalLabelPosition=bottom;html=1;verticalAlign=top;align=center;strokeWidth=1;shape=mxgraph.floorplan.wall;fillColor=#000000;direction=south;rounded=0;shadow=0;comic=0;fontFamily=Verdana;fontSize=12;" parent="1" vertex="1">
          <mxGeometry x="1166" y="586" width="10" height="16" as="geometry" />
        </mxCell>
        <mxCell id="48ef80bc37b76060-362" value="" style="verticalLabelPosition=bottom;html=1;verticalAlign=top;align=center;strokeWidth=1;shape=mxgraph.floorplan.wall;fillColor=#000000;rounded=0;shadow=0;comic=0;fontFamily=Verdana;fontSize=12;" parent="1" vertex="1">
          <mxGeometry x="987" y="686" width="180" height="10" as="geometry" />
        </mxCell>
        <mxCell id="48ef80bc37b76060-363" value="" style="verticalLabelPosition=bottom;html=1;verticalAlign=top;align=center;strokeWidth=1;shape=mxgraph.floorplan.wall;fillColor=#000000;direction=south;rounded=0;shadow=0;comic=0;fontFamily=Verdana;fontSize=12;" parent="1" vertex="1">
          <mxGeometry x="1166" y="683" width="10" height="18" as="geometry" />
        </mxCell>
        <mxCell id="48ef80bc37b76060-364" value="" style="verticalLabelPosition=bottom;html=1;verticalAlign=top;align=center;strokeWidth=1;shape=mxgraph.floorplan.doorLeft;rounded=0;shadow=0;comic=0;fillColor=#FFFFFF;fontFamily=Verdana;fontSize=12;rotation=90;" parent="1" vertex="1">
          <mxGeometry x="1091" y="699" width="80" height="85" as="geometry" />
        </mxCell>
        <mxCell id="48ef80bc37b76060-365" value="" style="verticalLabelPosition=bottom;html=1;verticalAlign=top;align=center;strokeWidth=1;shape=mxgraph.floorplan.wall;fillColor=#000000;direction=south;rounded=0;shadow=0;comic=0;fontFamily=Verdana;fontSize=12;" parent="1" vertex="1">
          <mxGeometry x="1166" y="777" width="10" height="10" as="geometry" />
        </mxCell>
        <mxCell id="48ef80bc37b76060-366" value="" style="verticalLabelPosition=bottom;html=1;verticalAlign=top;align=center;strokeWidth=1;shape=mxgraph.floorplan.wallCorner;fillColor=#000000;direction=west;rounded=0;shadow=0;comic=0;fontFamily=Verdana;fontSize=12;" parent="1" vertex="1">
          <mxGeometry x="987" y="685" width="323" height="110" as="geometry" />
        </mxCell>
        <mxCell id="48ef80bc37b76060-367" value="" style="verticalLabelPosition=bottom;html=1;verticalAlign=top;align=center;strokeWidth=1;shape=mxgraph.floorplan.toilet;rounded=0;shadow=0;comic=0;fontFamily=Verdana;fontSize=12;rotation=-90;" parent="1" vertex="1">
          <mxGeometry x="1003" y="610" width="50" height="67" as="geometry" />
        </mxCell>
        <mxCell id="48ef80bc37b76060-368" value="" style="verticalLabelPosition=bottom;html=1;verticalAlign=top;align=center;strokeWidth=1;shape=mxgraph.floorplan.toilet;rounded=0;shadow=0;comic=0;fontFamily=Verdana;fontSize=12;rotation=-90;" parent="1" vertex="1">
          <mxGeometry x="1003" y="709" width="50" height="67" as="geometry" />
        </mxCell>
        <mxCell id="48ef80bc37b76060-369" value="" style="verticalLabelPosition=bottom;html=1;verticalAlign=top;align=center;strokeWidth=1;shape=mxgraph.floorplan.sink_2;rounded=0;shadow=0;comic=0;fontFamily=Verdana;fontSize=12;rotation=90;" parent="1" vertex="1">
          <mxGeometry x="1262" y="702" width="40" height="35" as="geometry" />
        </mxCell>
        <mxCell id="48ef80bc37b76060-370" value="" style="verticalLabelPosition=bottom;html=1;verticalAlign=top;align=center;strokeWidth=1;shape=mxgraph.floorplan.sink_2;rounded=0;shadow=0;comic=0;fontFamily=Verdana;fontSize=12;rotation=90;" parent="1" vertex="1">
          <mxGeometry x="1262" y="746" width="40" height="35" as="geometry" />
        </mxCell>
        <mxCell id="48ef80bc37b76060-371" value="" style="verticalLabelPosition=bottom;html=1;verticalAlign=top;align=center;strokeWidth=1;shape=mxgraph.floorplan.doorRight;rounded=0;shadow=0;comic=0;fontFamily=Verdana;fontSize=12;rotation=90;flipV=0;flipH=1;" parent="1" vertex="1">
          <mxGeometry x="1225" y="602" width="80" height="85" as="geometry" />
        </mxCell>
        <mxCell id="48ef80bc37b76060-372" value="" style="verticalLabelPosition=bottom;html=1;verticalAlign=top;align=center;strokeWidth=1;shape=mxgraph.floorplan.wall;fillColor=#000000;direction=south;rounded=0;shadow=0;comic=0;fontFamily=Verdana;fontSize=12;" parent="1" vertex="1">
          <mxGeometry x="1300" y="594" width="10" height="10" as="geometry" />
        </mxCell>
        <mxCell id="48ef80bc37b76060-373" value="" style="verticalLabelPosition=bottom;html=1;verticalAlign=top;align=center;strokeWidth=1;shape=mxgraph.floorplan.wall;fillColor=#000000;rounded=0;shadow=0;comic=0;fontFamily=Verdana;fontSize=12;" parent="1" vertex="1">
          <mxGeometry x="1487" y="391" width="220" height="10" as="geometry" />
        </mxCell>
        <mxCell id="48ef80bc37b76060-374" value="" style="verticalLabelPosition=bottom;html=1;verticalAlign=top;align=center;strokeWidth=1;shape=mxgraph.floorplan.chair;shadow=0;rounded=0;comic=0;fontFamily=Verdana;fontSize=12;" parent="1" vertex="1">
          <mxGeometry x="1588" y="440" width="40" height="52" as="geometry" />
        </mxCell>
        <mxCell id="48ef80bc37b76060-375" value="" style="verticalLabelPosition=bottom;html=1;verticalAlign=top;align=center;strokeWidth=1;shape=mxgraph.floorplan.chair;shadow=0;direction=west;rounded=0;comic=0;fontFamily=Verdana;fontSize=12;" parent="1" vertex="1">
          <mxGeometry x="1588" y="528" width="40" height="52" as="geometry" />
        </mxCell>
        <mxCell id="48ef80bc37b76060-376" value="" style="verticalLabelPosition=bottom;html=1;verticalAlign=top;align=center;strokeWidth=1;shape=mxgraph.floorplan.chair;shadow=0;direction=north;rounded=0;comic=0;fontFamily=Verdana;fontSize=12;" parent="1" vertex="1">
          <mxGeometry x="1538" y="490" width="52" height="40" as="geometry" />
        </mxCell>
        <mxCell id="48ef80bc37b76060-377" value="" style="verticalLabelPosition=bottom;html=1;verticalAlign=top;align=center;strokeWidth=1;shape=mxgraph.floorplan.chair;shadow=0;direction=south;rounded=0;comic=0;fontFamily=Verdana;fontSize=12;" parent="1" vertex="1">
          <mxGeometry x="1626" y="490" width="52" height="40" as="geometry" />
        </mxCell>
        <mxCell id="48ef80bc37b76060-378" value="" style="shape=ellipse;shadow=0;rounded=0;comic=0;fontFamily=Verdana;fontSize=12;align=center;html=1;" parent="1" vertex="1">
          <mxGeometry x="1558" y="460" width="100" height="100" as="geometry" />
        </mxCell>
        <mxCell id="48ef80bc37b76060-379" value="" style="verticalLabelPosition=bottom;html=1;verticalAlign=top;align=center;strokeWidth=1;shape=mxgraph.floorplan.chair;shadow=0;rounded=0;comic=0;fontFamily=Verdana;fontSize=12;" parent="1" vertex="1">
          <mxGeometry x="1583" y="629" width="40" height="52" as="geometry" />
        </mxCell>
        <mxCell id="48ef80bc37b76060-380" value="" style="verticalLabelPosition=bottom;html=1;verticalAlign=top;align=center;strokeWidth=1;shape=mxgraph.floorplan.chair;shadow=0;direction=west;rounded=0;comic=0;fontFamily=Verdana;fontSize=12;" parent="1" vertex="1">
          <mxGeometry x="1583" y="717" width="40" height="52" as="geometry" />
        </mxCell>
        <mxCell id="48ef80bc37b76060-381" value="" style="verticalLabelPosition=bottom;html=1;verticalAlign=top;align=center;strokeWidth=1;shape=mxgraph.floorplan.chair;shadow=0;direction=north;rounded=0;comic=0;fontFamily=Verdana;fontSize=12;" parent="1" vertex="1">
          <mxGeometry x="1533" y="679" width="52" height="40" as="geometry" />
        </mxCell>
        <mxCell id="48ef80bc37b76060-382" value="" style="verticalLabelPosition=bottom;html=1;verticalAlign=top;align=center;strokeWidth=1;shape=mxgraph.floorplan.chair;shadow=0;direction=south;rounded=0;comic=0;fontFamily=Verdana;fontSize=12;" parent="1" vertex="1">
          <mxGeometry x="1621" y="679" width="52" height="40" as="geometry" />
        </mxCell>
        <mxCell id="48ef80bc37b76060-383" value="" style="shape=ellipse;shadow=0;rounded=0;comic=0;fontFamily=Verdana;fontSize=12;align=center;html=1;" parent="1" vertex="1">
          <mxGeometry x="1553" y="649" width="100" height="100" as="geometry" />
        </mxCell>
        <mxCell id="48ef80bc37b76060-385" value="" style="verticalLabelPosition=bottom;html=1;verticalAlign=top;align=center;strokeWidth=1;shape=mxgraph.floorplan.refrigerator;rounded=0;shadow=0;comic=0;fontFamily=Verdana;fontSize=12;rotation=90;flipV=0;flipH=1;" parent="1" vertex="1">
          <mxGeometry x="2037" y="462" width="60" height="62" as="geometry" />
        </mxCell>
        <mxCell id="48ef80bc37b76060-386" value="" style="verticalLabelPosition=bottom;html=1;verticalAlign=top;align=center;strokeWidth=1;shape=mxgraph.floorplan.refrigerator;rounded=0;shadow=0;comic=0;fontFamily=Verdana;fontSize=12;rotation=90;" parent="1" vertex="1">
          <mxGeometry x="2037" y="402" width="60" height="62" as="geometry" />
        </mxCell>
        <mxCell id="48ef80bc37b76060-387" value="" style="verticalLabelPosition=bottom;html=1;verticalAlign=top;align=center;strokeWidth=1;shape=mxgraph.floorplan.range_2;rounded=0;shadow=0;comic=0;fontFamily=Verdana;fontSize=12;rotation=90;" parent="1" vertex="1">
          <mxGeometry x="2030" y="531" width="75" height="62" as="geometry" />
        </mxCell>
        <mxCell id="48ef80bc37b76060-388" value="" style="verticalLabelPosition=bottom;html=1;verticalAlign=top;align=center;strokeWidth=1;shape=mxgraph.floorplan.sink_double;rounded=0;shadow=0;comic=0;fontFamily=Verdana;fontSize=12;flipV=1;" parent="1" vertex="1">
          <mxGeometry x="1906" y="648" width="80" height="35" as="geometry" />
        </mxCell>
        <mxCell id="48ef80bc37b76060-390" value="" style="verticalLabelPosition=bottom;html=1;verticalAlign=top;align=center;strokeWidth=1;shape=mxgraph.floorplan.dresser;rounded=0;shadow=0;comic=0;fontFamily=Verdana;fontSize=12;flipV=1;" parent="1" vertex="1">
          <mxGeometry x="1806" y="632" width="100" height="65" as="geometry" />
        </mxCell>
        <mxCell id="48ef80bc37b76060-391" value="" style="verticalLabelPosition=bottom;html=1;verticalAlign=top;align=center;strokeWidth=1;shape=mxgraph.floorplan.wallCorner;fillColor=#000000;direction=north;rounded=0;shadow=0;comic=0;fontFamily=Verdana;fontSize=12;" parent="1" vertex="1">
          <mxGeometry x="1795" y="577" width="312" height="120" as="geometry" />
        </mxCell>
        <mxCell id="48ef80bc37b76060-392" value="" style="verticalLabelPosition=bottom;html=1;verticalAlign=top;align=center;strokeWidth=1;shape=mxgraph.floorplan.doorLeft;rounded=0;shadow=0;comic=0;fontFamily=Verdana;fontSize=12;" parent="1" vertex="1">
          <mxGeometry x="1808" y="393" width="80" height="85" as="geometry" />
        </mxCell>
        <mxCell id="48ef80bc37b76060-393" value="" style="verticalLabelPosition=bottom;html=1;verticalAlign=top;align=center;strokeWidth=1;shape=mxgraph.floorplan.doorRight;rounded=0;shadow=0;comic=0;fontFamily=Verdana;fontSize=12;rotation=-90;" parent="1" vertex="1">
          <mxGeometry x="1800" y="494" width="80" height="85" as="geometry" />
        </mxCell>
        <mxCell id="48ef80bc37b76060-394" value="" style="verticalLabelPosition=bottom;html=1;verticalAlign=top;align=center;strokeWidth=1;shape=mxgraph.floorplan.doorRight;rounded=0;shadow=0;comic=0;fontFamily=Verdana;fontSize=12;rotation=-90;" parent="1" vertex="1">
          <mxGeometry x="1936" y="701" width="80" height="78" as="geometry" />
        </mxCell>
        <mxCell id="48ef80bc37b76060-395" value="" style="verticalLabelPosition=bottom;html=1;verticalAlign=top;align=center;strokeWidth=1;shape=mxgraph.floorplan.sink_1;rounded=0;shadow=0;comic=0;fontFamily=Verdana;fontSize=12;rotation=90;" parent="1" vertex="1">
          <mxGeometry x="2061" y="721" width="40" height="35" as="geometry" />
        </mxCell>
        <mxCell id="48ef80bc37b76060-396" value="" style="verticalLabelPosition=bottom;html=1;verticalAlign=top;align=center;strokeWidth=1;shape=mxgraph.floorplan.wall;fillColor=#000000;rounded=0;shadow=0;comic=0;fontFamily=Verdana;fontSize=12;" parent="1" vertex="1">
          <mxGeometry x="1788" y="391" width="20" height="10" as="geometry" />
        </mxCell>
        <mxCell id="48ef80bc37b76060-397" value="" style="verticalLabelPosition=bottom;html=1;verticalAlign=top;align=center;strokeWidth=1;shape=mxgraph.floorplan.doorRight;rounded=0;shadow=0;comic=0;fontFamily=Verdana;fontSize=12;" parent="1" vertex="1">
          <mxGeometry x="1708" y="393" width="80" height="85" as="geometry" />
        </mxCell>
        <mxCell id="48ef80bc37b76060-398" value="" style="verticalLabelPosition=bottom;html=1;verticalAlign=top;align=center;strokeWidth=1;shape=mxgraph.floorplan.wall;fillColor=#000000;direction=south;rounded=0;shadow=0;comic=0;fontFamily=Verdana;fontSize=12;" parent="1" vertex="1">
          <mxGeometry x="1795" y="397" width="10" height="100" as="geometry" />
        </mxCell>
        <mxCell id="48ef80bc37b76060-399" value="" style="verticalLabelPosition=bottom;html=1;verticalAlign=top;align=center;strokeWidth=1;shape=mxgraph.floorplan.wall;fillColor=#000000;direction=south;rounded=0;shadow=0;comic=0;fontFamily=Verdana;fontSize=12;" parent="1" vertex="1">
          <mxGeometry x="1934" y="687" width="10" height="13" as="geometry" />
        </mxCell>
        <mxCell id="48ef80bc37b76060-400" value="" style="verticalLabelPosition=bottom;html=1;verticalAlign=top;align=center;strokeWidth=1;shape=mxgraph.floorplan.wall;fillColor=#000000;direction=south;rounded=0;shadow=0;comic=0;fontFamily=Verdana;fontSize=12;" parent="1" vertex="1">
          <mxGeometry x="1935" y="780" width="10" height="13" as="geometry" />
        </mxCell>
        <mxCell id="48ef80bc37b76060-7" value="" style="verticalLabelPosition=bottom;html=1;verticalAlign=top;align=center;strokeWidth=1;shape=mxgraph.floorplan.office_chair;shadow=0;rounded=0;comic=0;fontFamily=Verdana;fontSize=12;" parent="1" vertex="1">
          <mxGeometry x="1001" y="1132" width="40" height="43" as="geometry" />
        </mxCell>
        <mxCell id="48ef80bc37b76060-8" value="" style="shape=rect;shadow=0;rounded=0;comic=0;fontFamily=Verdana;fontSize=12;align=center;html=1;" parent="1" vertex="1">
          <mxGeometry x="981" y="1152" width="80" height="50" as="geometry" />
        </mxCell>
        <mxCell id="48ef80bc37b76060-9" value="" style="verticalLabelPosition=bottom;html=1;verticalAlign=top;align=center;strokeWidth=1;shape=mxgraph.floorplan.workstation;shadow=0;flipV=1;rounded=0;comic=0;fontFamily=Verdana;fontSize=12;" parent="1" vertex="1">
          <mxGeometry x="996" y="1162" width="50" height="40" as="geometry" />
        </mxCell>
      </root>
    </mxGraphModel>
  </diagram>
</mxfile>
